<svg width="179" height="68" viewBox="0 0 179 68" fill="none" xmlns="http://www.w3.org/2000/svg">
<g clip-path="url(#clip0)">
<path d="M83.0281 7.09048C82.7301 7.13319 82.4746 7.00505 82.2617 6.79148C82.134 6.57791 82.0488 6.27892 82.0488 6.02264C82.0488 5.76636 82.0914 5.55279 82.2617 5.33922C82.6875 4.9548 83.3688 4.9548 83.7945 5.33922C83.9223 5.55279 84.0074 5.76636 84.0074 6.02264C84.0074 6.27892 83.9649 6.5352 83.7945 6.79148C83.5817 7.00505 83.2836 7.13319 83.0281 7.09048ZM82.1766 8.24374H83.8371V18.7513H82.1766V8.24374Z" fill="white"/>
<path d="M90.9903 18.9648C90.0962 19.0075 89.202 18.7512 88.4356 18.2814C87.7544 17.8115 87.2434 17.1281 86.9028 16.3593C86.5622 15.505 86.3918 14.5653 86.3918 13.6256C86.3918 12.0452 86.7751 10.7638 87.5415 9.73868C88.3079 8.71355 89.4575 8.20099 90.9478 8.20099C91.5439 8.20099 92.1399 8.28642 92.6935 8.5427C93.1193 8.75626 93.5025 9.01255 93.8431 9.39697C94.0986 9.65325 94.3115 9.95224 94.4818 10.294C94.6095 10.5502 94.6947 10.7638 94.7372 10.8492H94.7798L94.8224 4.18591H96.5255V18.7085H95.0779L94.8224 16.402H94.7798C94.6947 16.5728 94.6095 16.7864 94.4818 16.9573C94.3115 17.2563 94.056 17.5553 93.8005 17.8543C93.4599 18.196 93.0767 18.4522 92.6509 18.6658C92.1825 18.8794 91.5864 19.0075 90.9903 18.9648ZM91.4161 17.5125C92.3528 17.5553 93.247 17.1708 93.8857 16.4874C94.5243 15.804 94.865 14.8643 94.865 13.6256C94.865 12.3869 94.5669 11.4899 93.9708 10.8065C93.3747 10.1231 92.4806 9.73868 91.5438 9.78139C90.8626 9.73868 90.1388 9.95224 89.5852 10.3367C89.0743 10.6784 88.6911 11.1909 88.4356 11.7889C88.1801 12.3869 88.0524 13.0276 88.095 13.6683C88.095 14.309 88.2227 14.9497 88.4356 15.5477C88.6485 16.103 88.9891 16.6156 89.5001 17C90.011 17.3417 90.6923 17.5553 91.4161 17.5125Z" fill="white"/>
<path d="M103.551 18.9648C102.529 19.0075 101.55 18.7512 100.698 18.196C99.9743 17.6834 99.3782 16.9573 99.0376 16.1457C98.6969 15.3342 98.5266 14.4372 98.5266 13.5402C98.5266 12.6005 98.6969 11.7035 99.1227 10.8492C99.5059 10.0377 100.059 9.39697 100.826 8.88441C101.635 8.37185 102.572 8.11557 103.508 8.15828C104.743 8.11557 105.978 8.58541 106.829 9.43969C107.724 10.294 108.192 11.4899 108.277 12.9422C108.32 13.1131 108.32 13.3266 108.32 13.4975H100.145C100.145 14.7789 100.443 15.7613 101.039 16.4447C101.635 17.1281 102.444 17.5125 103.551 17.5125C104.275 17.5125 104.999 17.299 105.637 16.8718C106.191 16.4874 106.574 15.8894 106.702 15.206H108.32C108.149 16.2311 107.638 17.2136 106.787 17.8543C105.808 18.6658 104.701 19.0075 103.551 18.9648ZM100.145 12.7286H106.574C106.574 12.3015 106.446 11.8316 106.276 11.4472C106.063 10.9347 105.722 10.5075 105.297 10.1658C104.743 9.78139 104.104 9.56783 103.423 9.61054C102.784 9.56783 102.188 9.73868 101.635 10.0804C101.166 10.3794 100.826 10.7638 100.57 11.2337C100.4 11.7035 100.23 12.2161 100.145 12.7286Z" fill="white"/>
<path d="M110.364 18.7085V8.24369H111.769L112.067 10.8492H112.109C112.152 10.6784 112.237 10.4648 112.322 10.2939C112.492 9.99495 112.705 9.69595 112.961 9.39696C113.259 9.05525 113.642 8.75625 114.068 8.5854C114.621 8.32912 115.217 8.20098 115.856 8.24369C116.58 8.20098 117.346 8.37183 117.985 8.71354C118.496 9.01253 118.879 9.48238 119.135 9.99495C119.39 10.5502 119.56 11.1482 119.646 11.7462C119.731 12.3442 119.731 12.9422 119.731 13.5402V18.7085H118.155V13.5402C118.198 12.6005 117.985 11.6181 117.559 10.7638C117.176 10.0804 116.41 9.69595 115.303 9.69595C113.983 9.61052 112.748 10.4648 112.365 11.7035C112.152 12.3442 112.024 13.0276 112.024 13.711V18.7085H110.364Z" fill="white"/>
<path d="M124.457 18.7085C123.818 18.7085 123.393 18.5377 123.137 18.1959C122.882 17.7688 122.754 17.2563 122.754 16.7864V9.48238H121.093V8.24369C121.519 8.24369 121.902 8.20098 122.328 8.11555C122.626 7.98741 122.796 7.73113 122.839 7.38942C122.924 6.79143 122.967 6.15072 122.924 5.55273H124.329V8.24369H126.756V9.48238H124.329V17.3844H126.756V18.7085H124.457Z" fill="white"/>
<path d="M130.248 7.09048C129.95 7.13319 129.694 7.00505 129.481 6.79148C129.353 6.57791 129.268 6.27892 129.268 6.02264C129.268 5.76636 129.311 5.55279 129.439 5.33922C129.864 4.9548 130.546 4.9548 130.971 5.33922C131.099 5.55279 131.184 5.76636 131.184 6.02264C131.184 6.27892 131.142 6.5352 130.971 6.79148C130.801 7.00505 130.503 7.13319 130.248 7.09048ZM129.396 8.20103H131.057V18.7086H129.396V8.20103Z" fill="white"/>
<path d="M138.252 18.9648C137.358 19.0075 136.464 18.7512 135.74 18.2814C135.059 17.8115 134.506 17.1281 134.207 16.3593C133.867 15.505 133.697 14.5653 133.697 13.6256C133.697 12.0452 134.08 10.7638 134.846 9.73868C135.613 8.71355 136.762 8.20099 138.252 8.20099C138.849 8.20099 139.445 8.28642 139.998 8.5427C140.424 8.75626 140.807 9.01255 141.148 9.39697C141.403 9.65325 141.616 9.95224 141.786 10.294C141.914 10.5502 141.999 10.7638 142.042 10.8492H142.084L142.127 4.18591H143.83V18.7085H142.383L142.127 16.402H142.084C141.999 16.5728 141.914 16.7864 141.786 16.9573C141.616 17.299 141.361 17.5553 141.105 17.8543C140.765 18.196 140.381 18.4522 139.956 18.6658C139.402 18.8794 138.806 19.0075 138.252 18.9648ZM138.636 17.5125C139.572 17.5553 140.467 17.1708 141.105 16.4874C141.744 15.804 142.084 14.8643 142.084 13.6256C142.084 12.3869 141.786 11.4899 141.19 10.8065C140.594 10.1231 139.7 9.73868 138.763 9.78139C138.082 9.73868 137.358 9.95224 136.805 10.3367C136.294 10.6784 135.911 11.1909 135.655 11.7889C135.442 12.3869 135.315 13.0276 135.315 13.6683C135.315 14.309 135.442 14.9497 135.655 15.5477C135.868 16.1457 136.209 16.6156 136.72 17C137.273 17.3417 137.954 17.5553 138.636 17.5125Z" fill="white"/>
<path d="M149.663 18.9647C148.812 19.0075 147.96 18.7512 147.279 18.2386C146.64 17.726 146.172 17.0853 145.916 16.3165C145.618 15.4195 145.448 14.4798 145.448 13.5401C145.448 11.9597 145.789 10.6783 146.47 9.65318C147.151 8.67077 148.216 8.1582 149.621 8.1582C150.259 8.1582 150.855 8.24363 151.452 8.49991C151.92 8.71348 152.303 9.01247 152.644 9.3969C152.942 9.73861 153.155 10.123 153.282 10.5502L153.325 10.422V8.1582H155.028V18.6657H153.623L153.368 16.6582L153.325 16.6155C153.155 16.9999 152.942 17.3416 152.644 17.6406C152.303 18.025 151.92 18.324 151.494 18.5376C150.941 18.8793 150.302 19.0075 149.663 18.9647ZM150.302 17.5125C151.366 17.5125 152.133 17.1708 152.601 16.4446C153.07 15.7185 153.325 14.7788 153.325 13.5828C153.325 12.3014 153.07 11.3617 152.601 10.721C152.133 10.0803 151.366 9.7386 150.345 9.7386C149.195 9.7386 148.386 10.0803 147.918 10.8064C147.407 11.618 147.151 12.5577 147.194 13.5401C147.151 14.5225 147.407 15.5477 147.96 16.3592C148.386 17.1281 149.195 17.5125 150.302 17.5125Z" fill="white"/>
<path d="M161.713 18.9648C160.819 19.0075 159.925 18.7512 159.201 18.2814C158.52 17.8115 157.966 17.1281 157.668 16.3593C157.328 15.505 157.157 14.5653 157.157 13.6256C157.157 12.0452 157.54 10.7638 158.307 9.73868C159.073 8.71355 160.223 8.20099 161.713 8.20099C162.309 8.20099 162.905 8.28642 163.459 8.5427C163.885 8.75626 164.268 9.01255 164.608 9.39697C164.864 9.65325 165.077 9.95224 165.247 10.294C165.375 10.5502 165.46 10.7638 165.503 10.8492H165.545L165.63 4.18591H167.333V18.7085H165.886L165.63 16.402H165.588C165.503 16.5728 165.417 16.7864 165.29 16.9573C165.119 17.299 164.864 17.5553 164.608 17.8543C164.268 18.196 163.885 18.4522 163.459 18.6658C162.905 18.8794 162.309 19.0075 161.713 18.9648ZM162.096 17.5125C163.033 17.5553 163.927 17.1708 164.566 16.4874C165.205 15.804 165.545 14.8643 165.545 13.6256C165.545 12.3869 165.247 11.4899 164.651 10.8065C164.055 10.1231 163.161 9.73868 162.224 9.78139C161.543 9.73868 160.819 9.95224 160.265 10.3367C159.755 10.6784 159.371 11.1909 159.116 11.7889C158.86 12.3869 158.733 13.0276 158.775 13.6683C158.775 14.309 158.903 14.9497 159.116 15.5477C159.329 16.1457 159.669 16.6156 160.18 17C160.734 17.3417 161.458 17.5553 162.096 17.5125Z" fill="white"/>
<path d="M174.231 18.9648C173.209 19.0075 172.23 18.7513 171.379 18.196C170.655 17.6834 170.059 16.9573 169.718 16.1457C169.377 15.3342 169.207 14.4372 169.207 13.5402C169.207 12.6005 169.377 11.7035 169.803 10.8492C170.186 10.0377 170.74 9.39698 171.506 8.92713C172.315 8.41457 173.252 8.15829 174.189 8.201C175.423 8.15829 176.658 8.62814 177.51 9.48241C178.404 10.3367 178.872 11.5327 178.957 12.9849C179 13.1558 179 13.3693 179 13.5402H170.825C170.825 14.8216 171.123 15.804 171.719 16.4874C172.315 17.1709 173.124 17.5126 174.231 17.5126C174.955 17.5126 175.679 17.299 176.318 16.8719C176.871 16.4874 177.254 15.8894 177.382 15.206H179C178.83 16.2312 178.319 17.2136 177.467 17.8543C176.531 18.6658 175.423 19.0075 174.231 18.9648ZM170.868 12.7286H177.297C177.297 12.3015 177.169 11.8317 176.999 11.4472C176.786 10.9347 176.445 10.5075 176.02 10.1658C175.466 9.7814 174.827 9.56784 174.146 9.61055C173.507 9.56784 172.911 9.73869 172.358 10.0804C171.889 10.3794 171.549 10.7638 171.293 11.2337C171.123 11.7035 170.953 12.2161 170.868 12.7286Z" fill="white"/>
<path d="M86.4768 35.4095C85.5827 35.4522 84.6885 35.1959 83.9647 34.7261C83.2834 34.2562 82.7299 33.5728 82.4318 32.804C82.0912 31.9497 81.9209 31.01 81.9209 30.0703C81.9209 28.4899 82.3041 27.2085 83.0705 26.1834C83.8369 25.1583 84.9866 24.6457 86.4768 24.6457C87.0729 24.6457 87.669 24.7311 88.2225 24.9874C88.6483 25.201 89.0315 25.4573 89.3721 25.8417C89.6276 26.098 89.8405 26.3969 90.0108 26.7387C90.1385 26.9949 90.2237 27.2085 90.2663 27.2939H90.3089L90.3514 20.6306H92.0546V35.1532H90.6069L90.3514 32.8467H90.3089C90.2663 32.9321 90.1811 33.103 90.0108 33.402C89.8405 33.7437 89.585 34 89.3296 34.299C88.9889 34.6407 88.6057 34.897 88.1799 35.1105C87.6264 35.2814 87.0303 35.4095 86.4768 35.4095ZM86.86 33.9145C87.7967 33.9573 88.6909 33.5728 89.3296 32.8894C89.9682 32.206 90.3089 31.2236 90.3089 30.0276C90.3089 28.8316 90.0108 27.8919 89.4147 27.2085C88.8186 26.5251 87.9245 26.1407 86.9877 26.1834C86.3065 26.1407 85.5826 26.3542 85.0291 26.7387C84.5182 27.0804 84.135 27.5929 83.8795 28.1909C83.624 28.7889 83.4963 29.4296 83.5389 30.0703C83.5389 30.711 83.6666 31.3517 83.8795 31.9497C84.0924 32.5477 84.433 33.0176 84.944 33.402C85.4549 33.7864 86.1362 33.9573 86.86 33.9145Z" fill="white"/>
<path d="M95.5462 23.4925C95.2481 23.5352 94.9927 23.407 94.7798 23.1935C94.6521 22.9799 94.5669 22.6809 94.5669 22.4246C94.5669 22.1683 94.6095 21.9548 94.7798 21.7412C95.2056 21.3568 95.8868 21.3568 96.3126 21.7412C96.4403 21.9548 96.5255 22.1683 96.5255 22.4246C96.5255 22.6809 96.4829 22.9372 96.3126 23.1935C96.0997 23.4497 95.8017 23.5352 95.5462 23.4925ZM94.6946 24.6457H96.3552V35.1533H94.6946V24.6457Z" fill="white"/>
<path d="M100.187 39.4674V37.887H106.574V32.804H106.531C106.489 32.8895 106.404 33.0603 106.276 33.3593C106.106 33.701 105.85 33.9573 105.595 34.2563C105.254 34.598 104.871 34.8543 104.445 35.0679C103.892 35.3241 103.338 35.4523 102.742 35.4096C100.954 35.495 99.3357 34.4272 98.697 32.7613C98.3563 31.9071 98.186 30.9674 98.186 30.0277C98.186 28.4473 98.5692 27.1659 99.3357 26.1407C100.102 25.1156 101.252 24.6458 102.785 24.6458C103.381 24.6458 103.977 24.7312 104.53 24.9875C104.956 25.201 105.339 25.4573 105.68 25.8417C105.935 26.098 106.148 26.4397 106.319 26.7387C106.446 26.995 106.531 27.2086 106.574 27.294H106.617V24.6458H108.32V36.9473C108.32 37.7588 108.149 38.3995 107.851 38.8267C107.553 39.2538 106.957 39.4674 106.191 39.4674H100.187ZM103.083 33.9146C104.019 33.9573 104.956 33.5729 105.595 32.8895C106.233 32.2061 106.531 31.2236 106.531 30.0277C106.531 28.8317 106.233 27.892 105.637 27.2086C105.041 26.5251 104.147 26.1407 103.253 26.1834C102.529 26.1407 101.848 26.3543 101.252 26.7387C100.741 27.0804 100.358 27.593 100.145 28.191C99.8892 28.789 99.7614 29.4297 99.7614 30.0704C99.7614 30.7111 99.8466 31.3518 100.102 31.9498C100.315 32.5478 100.656 33.0176 101.167 33.402C101.677 33.7437 102.359 33.9573 103.083 33.9146Z" fill="white"/>
<path d="M111.769 23.4925C111.471 23.5352 111.215 23.407 111.002 23.1935C110.874 22.9799 110.789 22.6809 110.789 22.4246C110.789 22.1683 110.832 21.9548 111.002 21.7412C111.428 21.3568 112.109 21.3568 112.535 21.7412C112.663 21.9548 112.748 22.1683 112.748 22.4246C112.748 22.6809 112.705 22.9372 112.535 23.1935C112.322 23.4497 112.024 23.5352 111.769 23.4925ZM110.917 24.6457H112.578V35.1533H110.917V24.6457Z" fill="white"/>
<path d="M117.857 35.1532C117.219 35.1532 116.793 34.9824 116.537 34.6406C116.282 34.2135 116.154 33.7437 116.154 33.2311V25.8844H114.536V24.6457C114.962 24.6457 115.345 24.603 115.771 24.5175C116.069 24.3894 116.239 24.1331 116.282 23.7914C116.367 23.1934 116.41 22.5527 116.367 21.9547H117.772V24.6457H120.199V25.8844H117.772V33.7864H120.199V35.1105L117.857 35.1532Z" fill="white"/>
<path d="M126.032 35.4096C125.181 35.4523 124.372 35.196 123.648 34.6834C123.009 34.1709 122.541 33.5302 122.286 32.7613C121.987 31.8643 121.817 30.9246 121.817 29.9849C121.817 28.4045 122.158 27.1231 122.839 26.098C123.52 25.1156 124.585 24.603 125.99 24.603C126.628 24.603 127.225 24.6885 127.821 24.9447C128.289 25.1583 128.672 25.4573 129.013 25.8417C129.311 26.1834 129.524 26.5679 129.652 26.995L129.694 26.8668V24.603H131.397V35.1106H129.992L129.737 33.103L129.694 33.0603C129.524 33.4447 129.311 33.7864 129.013 34.0854C128.672 34.4699 128.289 34.7689 127.863 34.9824C127.267 35.2814 126.671 35.4096 126.032 35.4096ZM126.671 33.9146C127.736 33.9146 128.502 33.5729 128.97 32.8467C129.439 32.1206 129.694 31.1809 129.694 29.9849C129.694 28.7035 129.439 27.7638 128.97 27.1231C128.502 26.4824 127.736 26.1407 126.714 26.1407C125.564 26.1407 124.755 26.5251 124.287 27.2086C123.776 28.0201 123.52 28.9598 123.563 29.9422C123.52 30.9246 123.776 31.9498 124.287 32.7613C124.755 33.5302 125.564 33.9146 126.671 33.9146Z" fill="white"/>
<path d="M135.314 20.6306H133.697V35.1532H135.314V20.6306Z" fill="white"/>
<path d="M85.3698 51.8115C84.5182 51.8543 83.7092 51.598 82.9854 51.0854C82.3467 50.5728 81.8784 49.9321 81.6229 49.1633C81.3249 48.2663 81.1545 47.3266 81.1545 46.3869C81.1545 44.8065 81.4952 43.5251 82.1764 42.5C82.8577 41.5176 83.9221 41.005 85.3272 41.005C85.9659 41.005 86.562 41.0904 87.1581 41.3467C87.6265 41.5603 88.0097 41.8593 88.3503 42.2437C88.6483 42.5854 88.8612 42.9698 88.989 43.397L89.0316 43.2688V41.005H90.7347V51.5125H89.3296L89.0741 49.505L89.0316 49.4623C88.8612 49.8467 88.6483 50.1884 88.3503 50.4874C88.0097 50.8718 87.6265 51.1708 87.2007 51.3844C86.6472 51.6834 86.0085 51.8115 85.3698 51.8115ZM86.0085 50.3593C87.0729 50.3593 87.8393 50.0176 88.3077 49.2914C88.7761 48.5653 89.0316 47.6256 89.0316 46.4296C89.0316 45.1482 88.7761 44.2085 88.3077 43.5678C87.7968 42.9271 87.0729 42.5854 86.0511 42.5854C84.9014 42.5854 84.0924 42.9271 83.6241 43.6532C83.1131 44.4648 82.8577 45.4045 82.9003 46.3869C82.8577 47.3693 83.1131 48.3945 83.6241 49.206C84.0924 49.9749 84.9014 50.3593 86.0085 50.3593Z" fill="white"/>
<path d="M95.2906 51.5552C94.6519 51.5552 94.2261 51.3843 93.9707 51.0426C93.7152 50.6155 93.5875 50.1029 93.5875 49.6331V42.2863H91.9695V41.0476C92.3953 41.0476 92.7785 41.0049 93.2043 40.9195C93.5023 40.7914 93.6726 40.5351 93.7152 40.1934C93.8004 39.5954 93.8429 38.9547 93.8004 38.3567H95.2054V41.0476H97.6324V42.2863H95.2054V50.1883H97.675V51.5125L95.2906 51.5552Z" fill="white"/>
<path d="M101.933 41.0477H100.272V51.5553H101.933V41.0477Z" fill="white"/>
<path d="M111.982 41.0477H113.642V41.4322L109.682 51.5553H107.341L103.338 41.4322V41.0477H104.999L108.49 50.1884H108.533L111.982 41.0477Z" fill="white"/>
<path d="M116.452 39.9372C116.154 39.9799 115.899 39.8517 115.686 39.6382C115.558 39.4246 115.473 39.1256 115.473 38.8693C115.473 38.613 115.515 38.3995 115.686 38.1859C116.112 37.8015 116.793 37.8015 117.219 38.1859C117.346 38.3995 117.431 38.613 117.431 38.8693C117.431 39.1256 117.389 39.3819 117.219 39.6382C117.006 39.8517 116.708 39.9372 116.452 39.9372ZM115.601 41.0477H117.261V51.5552H115.601V41.0477Z" fill="white"/>
<path d="M123.818 51.8115C122.967 51.8542 122.115 51.6407 121.349 51.1708C120.753 50.7864 120.242 50.2738 119.901 49.6759C119.603 49.206 119.433 48.6934 119.433 48.1382H121.008C121.008 48.1382 121.008 48.2663 121.051 48.5226C121.093 48.8216 121.178 49.0779 121.306 49.3341C121.476 49.6758 121.774 49.9748 122.115 50.1457C122.626 50.402 123.18 50.5301 123.776 50.4874C124.457 50.4874 125.138 50.3593 125.777 50.0603C126.288 49.8467 126.628 49.3341 126.586 48.7789C126.628 48.3517 126.415 47.9246 126.075 47.6256C125.692 47.3266 125.223 47.113 124.755 47.0276C124.244 46.8995 123.648 46.7286 123.094 46.6005C122.541 46.4723 121.987 46.3015 121.434 46.0879C120.923 45.8743 120.497 45.5753 120.156 45.1909C119.816 44.7211 119.646 44.1231 119.688 43.5678C119.688 42.7135 120.114 41.9447 120.838 41.5176C121.732 40.9623 122.754 40.706 123.776 40.7487C124.457 40.7487 125.138 40.8769 125.819 41.0904C126.458 41.304 127.054 41.6884 127.523 42.201C127.948 42.7135 128.161 43.4397 128.161 44.4221H126.628C126.714 43.9095 126.543 43.3542 126.203 42.9698C125.862 42.6281 125.479 42.4145 125.053 42.3291C124.627 42.201 124.244 42.1583 123.818 42.1583C123.18 42.1155 122.583 42.2864 121.987 42.5854C121.349 42.9271 121.093 43.7814 121.434 44.4221C121.519 44.5929 121.647 44.7211 121.774 44.8492C122.158 45.1055 122.583 45.3191 123.052 45.4472C123.563 45.5753 124.116 45.7462 124.712 45.8743C125.308 46.0025 125.862 46.1733 126.415 46.3869C126.926 46.6005 127.352 46.8995 127.735 47.3266C128.076 47.8392 128.289 48.4372 128.246 49.0351C128.289 49.9321 127.821 50.7864 126.969 51.2135C125.99 51.598 124.925 51.8542 123.818 51.8115Z" fill="white"/>
<path d="M132.632 51.5552C131.993 51.5552 131.568 51.3843 131.312 51.0426C131.057 50.6155 130.929 50.1029 130.929 49.6331V42.2863H129.268V41.0476C129.694 41.0476 130.077 41.0049 130.503 40.9195C130.801 40.7914 130.971 40.5351 131.014 40.1934C131.099 39.5954 131.142 38.9547 131.099 38.3567H132.504V41.0476H134.931V42.2863H132.504V50.1883H134.931V51.5125L132.632 51.5552Z" fill="white"/>
<path d="M140.765 51.8115C139.913 51.8543 139.104 51.598 138.38 51.0854C137.742 50.5728 137.273 49.9321 137.018 49.1633C136.72 48.2663 136.549 47.3266 136.549 46.3869C136.549 44.8065 136.89 43.5251 137.571 42.5C138.252 41.5176 139.317 41.005 140.722 41.005C141.361 41.005 141.957 41.0904 142.553 41.3467C143.021 41.5603 143.404 41.8593 143.745 42.2437C144.043 42.5854 144.256 42.9698 144.384 43.397L144.426 43.2688V41.005H146.129V51.5125H144.724L144.469 49.505L144.426 49.4623C144.256 49.8467 144.043 50.1884 143.745 50.4874C143.404 50.8718 143.021 51.1708 142.595 51.3844C142.042 51.6834 141.403 51.8115 140.765 51.8115ZM141.446 50.3593C142.51 50.3593 143.277 50.0176 143.745 49.2914C144.213 48.5653 144.469 47.6256 144.469 46.4296C144.469 45.1482 144.213 44.2085 143.745 43.5678C143.277 42.9271 142.51 42.5854 141.488 42.5854C140.339 42.5854 139.53 42.9271 139.061 43.6532C138.551 44.4648 138.295 45.4045 138.338 46.3869C138.295 47.3693 138.551 48.3945 139.061 49.206C139.487 49.9749 140.296 50.3593 141.446 50.3593Z" fill="white"/>
<path d="M65.9541 45.1483L49.5188 3.24624C49.093 2.13569 48.2414 1.19599 47.177 0.597998C44.7074 -0.726122 41.6417 0.213576 40.3218 2.69096L24.5678 32.4623C24.3975 32.7613 24.2697 33.0603 24.1846 33.402C23.7162 34.8116 23.8865 36.3493 24.5678 37.6734C25.249 38.9975 26.3986 39.9799 27.8463 40.4071L60.7595 50.7865C61.1853 50.9146 61.6111 51 62.0368 51C62.5478 51 63.1013 50.9146 63.5697 50.701C65.7412 49.804 66.8056 47.3267 65.9541 45.1483ZM64.038 47.3267C63.6974 48.4372 62.5052 49.0779 61.3556 48.7362L28.4424 38.3995C28.2295 38.3568 28.0592 38.2714 27.8463 38.1432C26.1857 37.2463 25.5471 35.1533 26.3986 33.4875L42.1527 3.71609C42.4933 3.07539 43.0043 2.60554 43.6855 2.34925C45.1758 1.75126 46.9215 2.4774 47.5176 4.01508L63.9955 45.9171C64.1658 46.3442 64.1658 46.8568 64.038 47.3267Z" fill="white"/>
<path d="M32.2746 11.1054L16.0521 5.93709C15.7115 5.80895 15.3283 5.76624 14.9451 5.76624C13.9658 5.76624 13.0716 6.15066 12.3904 6.83407C11.7091 7.51749 11.3259 8.41448 11.3259 9.39689V46.1306C11.3259 48.6079 12.8588 50.7436 15.2006 51.4697L31.5933 56.7235C33.5945 57.3642 35.6808 57.7059 37.7672 57.7486C41.0457 57.7486 44.1114 56.8089 46.5383 54.9723C50.3704 52.1532 52.4993 47.5401 52.4993 41.9873V38.3567C52.5845 26.9095 43.4727 14.6934 32.2746 11.1054ZM32.2746 54.6733L15.8818 49.4195C14.4342 48.9496 13.4549 47.6255 13.4974 46.1306V9.39689C13.4974 8.58533 14.1361 7.90191 14.9451 7.90191C15.0728 7.90191 15.2431 7.94463 15.4135 7.98734L31.6359 13.1557C41.9824 16.4446 50.4556 27.7637 50.4556 38.314V41.9446C50.4556 46.814 48.6673 50.829 45.3887 53.221C41.9399 55.7411 37.2562 56.2537 32.2746 54.6733Z" fill="white"/>
<path d="M17.7978 22.2965L4.68363 18.1106C4.34301 17.9824 3.9598 17.9397 3.61917 17.9397C2.63987 17.9397 1.74572 18.3241 1.06446 19.0075C0.383206 19.691 0 20.5879 0 21.5704V58.304C0 60.7387 1.53283 62.9171 3.87464 63.6432L16.9888 67.8291C17.3294 67.9573 17.7127 68 18.0959 68C20.0545 68 21.6725 66.3769 21.6725 64.3693V27.6357C21.6725 25.1583 20.1396 23.0226 17.7978 22.2965ZM4.04496 20.1608L17.1591 24.3467C18.6068 24.8166 19.5435 26.1407 19.5435 27.6357V64.3693C19.5435 64.5402 19.501 64.6683 19.4584 64.8392C19.3306 65.2236 19.0752 65.5226 18.7345 65.6935C18.3939 65.8643 17.9681 65.907 17.6275 65.7789L4.51332 61.593C3.06565 61.1231 2.08635 59.799 2.12892 58.304V21.5704C2.12892 20.7588 2.81018 20.0754 3.61917 20.0754C3.78949 20.0754 3.91722 20.1181 4.04496 20.1608Z" fill="white"/>
</g>
<defs>
<clipPath id="clip0">
<rect width="179" height="68" fill="white"/>
</clipPath>
</defs>
</svg>
