<svg width="184" height="65" viewBox="0 0 184 65" fill="none" xmlns="http://www.w3.org/2000/svg">
<path d="M85.8593 6.65456C85.4743 6.65456 85.2146 6.5581 85.0833 6.36802C84.952 6.17794 84.8864 5.93113 84.8864 5.63041C84.8864 5.38076 84.952 5.15947 85.0833 4.96939C85.2146 4.77932 85.4743 4.68286 85.8593 4.68286C86.2443 4.68286 86.5039 4.77932 86.6352 4.96939C86.7665 5.16231 86.8322 5.38076 86.8322 5.63041C86.8322 5.93113 86.7665 6.17511 86.6352 6.36802C86.5039 6.5581 86.2443 6.65456 85.8593 6.65456ZM85.0177 17.923V7.75246H86.7009V17.923H85.0177Z" fill="white"/>
<path d="M94.0337 18.171C92.9981 18.171 92.1355 17.9468 91.4432 17.4958C90.7508 17.0447 90.2345 16.4262 89.8913 15.6347C89.548 14.8432 89.3779 13.9581 89.3779 12.9736C89.3779 11.4587 89.7719 10.2076 90.5598 9.226C91.3477 8.24441 92.5146 7.75078 94.0545 7.75078C94.7738 7.75078 95.3737 7.86425 95.8541 8.08837C96.3346 8.3125 96.7256 8.58484 97.0241 8.89975C97.3225 9.21749 97.5404 9.50686 97.6806 9.77353C97.8209 10.0402 97.9074 10.2161 97.9433 10.2984H97.997L98.0238 3.85278H99.7578V17.9185H98.2924L98.0298 15.6688H97.9761C97.9403 15.751 97.8448 15.9269 97.6866 16.1936C97.5284 16.4603 97.2956 16.744 96.9912 17.0418C96.6838 17.3426 96.2899 17.6036 95.8094 17.8277C95.3259 18.0575 94.735 18.171 94.0337 18.171ZM94.4545 16.7468C95.4871 16.7468 96.3347 16.4092 96.9912 15.734C97.6478 15.0588 97.9761 14.1396 97.9761 12.9736C97.9761 11.8247 97.6687 10.9112 97.0569 10.2388C96.4421 9.5636 95.6184 9.226 94.5858 9.226C93.7621 9.226 93.0876 9.40473 92.5623 9.76219C92.0371 10.1196 91.6521 10.5821 91.4044 11.1495C91.1596 11.7169 91.0373 12.324 91.0373 12.9736C91.0373 13.6063 91.1507 14.2105 91.3805 14.7865C91.6073 15.3624 91.9684 15.8333 92.4579 16.1993C92.9473 16.5652 93.6128 16.7468 94.4545 16.7468Z" fill="white"/>
<path d="M106.835 18.1717C105.662 18.1717 104.692 17.9192 103.931 17.4085C103.17 16.9007 102.609 16.2425 102.248 15.434C101.89 14.6255 101.708 13.7886 101.708 12.9233C101.708 11.9729 101.904 11.1048 102.298 10.3133C102.692 9.52175 103.271 8.89194 104.032 8.42668C104.793 7.96142 105.71 7.72595 106.778 7.72595C108.145 7.72595 109.285 8.14582 110.195 8.9884C111.106 9.83098 111.598 10.9573 111.667 12.3729C111.685 12.4382 111.693 12.6226 111.693 12.9233H103.334C103.334 14.1574 103.635 15.1106 104.241 15.7858C104.847 16.461 105.701 16.7986 106.805 16.7986C107.629 16.7986 108.333 16.6 108.921 16.2C109.509 15.8 109.87 15.2581 110.013 14.5744H111.67C111.494 15.607 110.977 16.4638 110.118 17.1475C109.261 17.8312 108.166 18.1717 106.835 18.1717ZM103.391 12.1261H109.962C109.962 11.7771 109.861 11.3601 109.661 10.8778C109.458 10.3955 109.127 9.97567 108.661 9.61537C108.196 9.25791 107.56 9.07919 106.754 9.07919C106.017 9.07919 105.414 9.22954 104.94 9.53026C104.465 9.83098 104.107 10.214 103.862 10.6792C103.618 11.1417 103.462 11.6268 103.391 12.1261Z" fill="white"/>
<path d="M113.826 17.921V7.75049H115.271L115.56 10.2754H115.614C115.632 10.1931 115.709 10.0172 115.85 9.75055C115.99 9.48387 116.205 9.19734 116.494 8.88811C116.784 8.57888 117.166 8.31221 117.637 8.08809C118.112 7.86397 118.715 7.75049 119.452 7.75049C120.38 7.75049 121.111 7.90936 121.646 8.22426C122.18 8.542 122.58 8.96187 122.842 9.48671C123.105 10.0115 123.272 10.5733 123.341 11.1747C123.409 11.7733 123.445 12.3492 123.445 12.8996V17.921H121.816V12.8996C121.816 11.7988 121.619 10.908 121.225 10.2272C120.831 9.54345 120.055 9.20301 118.9 9.20301C118.112 9.20301 117.467 9.38174 116.969 9.7392C116.471 10.0967 116.109 10.5733 115.892 11.1634C115.674 11.7534 115.563 12.4003 115.563 13.101V17.9238H113.826V17.921Z" fill="white"/>
<path d="M128.229 17.921C127.582 17.921 127.128 17.7537 126.874 17.4217C126.621 17.0898 126.492 16.6302 126.492 16.0486V8.95055H124.809V7.75051C125.37 7.75051 125.785 7.70512 126.056 7.61433C126.328 7.52355 126.498 7.29376 126.57 6.92779C126.638 6.56182 126.674 5.96322 126.674 5.12915H128.119V7.75335H130.59V8.95338H128.119V16.6245H130.617V17.9239H128.229V17.921Z" fill="white"/>
<path d="M134.141 6.65456C133.756 6.65456 133.496 6.5581 133.365 6.36802C133.234 6.17794 133.168 5.93113 133.168 5.63041C133.168 5.38076 133.234 5.15947 133.365 4.96939C133.496 4.77932 133.756 4.68286 134.141 4.68286C134.526 4.68286 134.786 4.77932 134.917 4.96939C135.048 5.16231 135.114 5.38076 135.114 5.63041C135.114 5.93113 135.048 6.17511 134.917 6.36802C134.786 6.5581 134.526 6.65456 134.141 6.65456ZM133.302 17.923V7.75246H134.986V17.923H133.302Z" fill="white"/>
<path d="M142.315 18.171C141.28 18.171 140.417 17.9468 139.725 17.4958C139.033 17.0447 138.516 16.4262 138.173 15.6347C137.83 14.8432 137.66 13.9581 137.66 12.9736C137.66 11.4587 138.054 10.2076 138.842 9.226C139.629 8.24441 140.796 7.75078 142.336 7.75078C143.056 7.75078 143.655 7.86425 144.136 8.08837C144.616 8.3125 145.007 8.58484 145.306 8.89975C145.604 9.21749 145.822 9.50686 145.962 9.77353C146.103 10.0402 146.189 10.2161 146.225 10.2984H146.279L146.306 3.85278H148.04V17.9185H146.568L146.306 15.6688H146.252C146.216 15.751 146.121 15.9269 145.962 16.1936C145.804 16.4603 145.571 16.744 145.267 17.0418C144.96 17.3426 144.566 17.6036 144.085 17.8277C143.608 18.0575 143.017 18.171 142.315 18.171ZM142.736 16.7468C143.769 16.7468 144.616 16.4092 145.273 15.734C145.93 15.0588 146.258 14.1396 146.258 12.9736C146.258 11.8247 145.95 10.9112 145.339 10.2388C144.724 9.5636 143.9 9.226 142.868 9.226C142.044 9.226 141.369 9.40473 140.844 9.76219C140.319 10.1196 139.934 10.5821 139.686 11.1495C139.441 11.7169 139.319 12.324 139.319 12.9736C139.319 13.6063 139.432 14.2105 139.662 14.7865C139.889 15.3624 140.25 15.8333 140.74 16.1993C141.229 16.5652 141.895 16.7468 142.736 16.7468Z" fill="white"/>
<path d="M154.016 18.1717C153.034 18.1717 152.228 17.939 151.598 17.4709C150.969 17.0028 150.497 16.3787 150.193 15.5957C149.885 14.8127 149.733 13.9219 149.733 12.9233C149.733 11.3913 150.088 10.1402 150.799 9.17564C151.509 8.21107 152.58 7.72595 154.019 7.72595C154.756 7.72595 155.374 7.83376 155.872 8.0522C156.371 8.26781 156.773 8.55151 157.081 8.90046C157.388 9.2494 157.612 9.62672 157.752 10.0324L157.779 9.90191V7.72879H159.513V17.922H158.069L157.806 15.9844L157.752 15.9475C157.594 16.2822 157.367 16.617 157.069 16.9603C156.77 17.3007 156.374 17.5901 155.872 17.8227C155.368 18.0553 154.75 18.1717 154.016 18.1717ZM154.672 16.7475C155.759 16.7475 156.544 16.4014 157.024 15.7092C157.505 15.017 157.746 14.0978 157.746 12.9488C157.746 11.7176 157.496 10.787 156.997 10.1629C156.499 9.53877 155.723 9.22671 154.672 9.22671C153.514 9.22671 152.688 9.57565 152.189 10.2764C151.691 10.9771 151.44 11.8594 151.44 12.9261C151.44 14.041 151.694 14.9574 152.201 15.6751C152.709 16.39 153.532 16.7475 154.672 16.7475Z" fill="white"/>
<path d="M166.341 18.171C165.305 18.171 164.443 17.9468 163.75 17.4958C163.058 17.0447 162.542 16.4262 162.199 15.6347C161.855 14.8432 161.685 13.9581 161.685 12.9736C161.685 11.4587 162.079 10.2076 162.867 9.226C163.655 8.24441 164.822 7.75078 166.362 7.75078C167.081 7.75078 167.681 7.86425 168.161 8.08837C168.642 8.3125 169.033 8.58484 169.331 8.89975C169.63 9.21749 169.848 9.50686 169.988 9.77353C170.128 10.0402 170.215 10.2161 170.251 10.2984H170.304L170.331 3.85278H172.065V17.9185H170.594L170.331 15.6688H170.277C170.242 15.751 170.146 15.9269 169.988 16.1936C169.83 16.4603 169.597 16.744 169.293 17.0418C168.985 17.3426 168.591 17.6036 168.111 17.8277C167.633 18.0575 167.042 18.171 166.341 18.171ZM166.762 16.7468C167.794 16.7468 168.642 16.4092 169.299 15.734C169.955 15.0588 170.283 14.1396 170.283 12.9736C170.283 11.8247 169.976 10.9112 169.364 10.2388C168.749 9.5636 167.926 9.226 166.893 9.226C166.069 9.226 165.395 9.40473 164.87 9.76219C164.344 10.1196 163.959 10.5821 163.712 11.1495C163.467 11.7169 163.345 12.324 163.345 12.9736C163.345 13.6063 163.458 14.2105 163.688 14.7865C163.915 15.3624 164.276 15.8333 164.765 16.1993C165.255 16.5652 165.92 16.7468 166.762 16.7468Z" fill="white"/>
<path d="M179.141 18.1717C177.969 18.1717 176.999 17.9192 176.238 17.4085C175.477 16.9007 174.915 16.2425 174.554 15.434C174.196 14.6255 174.014 13.7886 174.014 12.9233C174.014 11.9729 174.211 11.1048 174.605 10.3133C174.999 9.52175 175.578 8.89194 176.339 8.42668C177.1 7.96142 178.016 7.72595 179.085 7.72595C180.452 7.72595 181.592 8.14582 182.502 8.9884C183.412 9.83098 183.905 10.9573 183.973 12.3729C183.991 12.4382 184 12.6226 184 12.9233H175.641C175.641 14.1574 175.942 15.1106 176.548 15.7858C177.154 16.461 178.007 16.7986 179.112 16.7986C179.935 16.7986 180.64 16.6 181.228 16.2C181.815 15.8 182.177 15.2581 182.32 14.5744H183.976C183.8 15.607 183.284 16.4638 182.424 17.1475C181.568 17.8312 180.473 18.1717 179.141 18.1717ZM175.697 12.1261H182.269C182.269 11.7771 182.168 11.3601 181.968 10.8778C181.765 10.3955 181.433 9.97567 180.968 9.61537C180.502 9.25791 179.867 9.07919 179.061 9.07919C178.324 9.07919 177.721 9.22954 177.246 9.53026C176.772 9.83098 176.414 10.214 176.169 10.6792C175.927 11.1417 175.769 11.6268 175.697 12.1261Z" fill="white"/>
<path d="M89.3805 34.0719C88.3449 34.0719 87.4824 33.8478 86.79 33.3967C86.0976 32.9457 85.5813 32.3272 85.2381 31.5357C84.8948 30.7442 84.7247 29.8591 84.7247 28.8746C84.7247 27.3597 85.1187 26.1086 85.9066 25.127C86.6945 24.1454 87.8614 23.6518 89.4013 23.6518C90.1206 23.6518 90.7205 23.7653 91.201 23.9894C91.6815 24.2135 92.0724 24.4858 92.3709 24.8007C92.6693 25.1185 92.8872 25.4079 93.0274 25.6745C93.1677 25.9412 93.2543 26.1171 93.2901 26.1994H93.3438L93.3707 19.7538H95.1046V33.8195H93.6333L93.3707 31.5697H93.3169C93.2811 31.652 93.1856 31.8279 93.0274 32.0946C92.8693 32.3613 92.6365 32.6449 92.3321 32.9428C92.0247 33.2435 91.6307 33.5046 91.1502 33.7287C90.6727 33.9613 90.0818 34.0719 89.3805 34.0719ZM89.8013 32.6478C90.8339 32.6478 91.6815 32.3102 92.338 31.635C92.9946 30.9598 93.3229 30.0406 93.3229 28.8746C93.3229 27.7257 93.0155 26.8122 92.4037 26.1398C91.7889 25.4646 90.9652 25.127 89.9326 25.127C89.1089 25.127 88.4344 25.3057 87.9091 25.6632C87.3839 26.0206 86.9989 26.4831 86.7512 27.0505C86.5064 27.6179 86.3841 28.225 86.3841 28.8746C86.3841 29.5073 86.4975 30.1115 86.7273 30.6874C86.9541 31.2633 87.3152 31.7343 87.8047 32.1003C88.2941 32.4662 88.9596 32.6478 89.8013 32.6478Z" fill="white"/>
<path d="M98.6595 22.5537C98.2745 22.5537 98.0148 22.4573 97.8835 22.2672C97.7522 22.0771 97.6865 21.8303 97.6865 21.5296C97.6865 21.2799 97.7522 21.0586 97.8835 20.8686C98.0148 20.6785 98.2745 20.582 98.6595 20.582C99.0444 20.582 99.3041 20.6785 99.4354 20.8686C99.5667 21.0615 99.6324 21.2799 99.6324 21.5296C99.6324 21.8303 99.5667 22.0743 99.4354 22.2672C99.3041 22.4601 99.0444 22.5537 98.6595 22.5537ZM97.8178 33.8222V23.6516H99.5011V33.8222H97.8178Z" fill="white"/>
<path d="M103.407 38.0223V36.4988H109.934V31.5767H109.88C109.844 31.659 109.752 31.8349 109.603 32.1015C109.454 32.3682 109.227 32.6519 108.919 32.9498C108.612 33.2505 108.218 33.5115 107.737 33.7356C107.254 33.9597 106.672 34.0732 105.989 34.0732C104.956 34.0732 104.09 33.8434 103.398 33.3867C102.706 32.9299 102.183 32.3086 101.834 31.5256C101.485 30.7426 101.309 29.8603 101.309 28.8759C101.309 27.3439 101.706 26.09 102.506 25.1169C103.303 24.1438 104.472 23.6559 106.015 23.6559C106.735 23.6559 107.335 23.7694 107.815 23.9935C108.296 24.2176 108.684 24.49 108.973 24.8049C109.263 25.1226 109.477 25.412 109.618 25.6786C109.758 25.9453 109.844 26.1212 109.88 26.2035H109.934V23.6559H111.668V35.574C111.668 36.374 111.51 36.9811 111.193 37.3981C110.877 37.8152 110.307 38.0223 109.486 38.0223H103.407ZM106.359 32.6491C107.409 32.6491 108.26 32.3115 108.907 31.6363C109.555 30.9611 109.88 30.0419 109.88 28.8759C109.88 27.7269 109.573 26.8134 108.961 26.1411C108.346 25.4659 107.532 25.1283 106.517 25.1283C105.675 25.1283 104.998 25.307 104.478 25.6645C103.962 26.0219 103.58 26.4843 103.335 27.0517C103.091 27.6191 102.968 28.2262 102.968 28.8759C102.968 29.5085 103.079 30.1128 103.297 30.6887C103.514 31.2646 103.876 31.7356 104.374 32.1015C104.875 32.4675 105.535 32.6491 106.359 32.6491Z" fill="white"/>
<path d="M115.244 22.5537C114.859 22.5537 114.6 22.4573 114.468 22.2672C114.337 22.0771 114.271 21.8303 114.271 21.5296C114.271 21.2799 114.337 21.0586 114.468 20.8686C114.6 20.6785 114.859 20.582 115.244 20.582C115.629 20.582 115.889 20.6785 116.02 20.8686C116.152 21.0615 116.217 21.2799 116.217 21.5296C116.217 21.8303 116.152 22.0743 116.02 22.2672C115.889 22.4601 115.629 22.5537 115.244 22.5537ZM114.403 33.8222V23.6516H116.086V33.8222H114.403Z" fill="white"/>
<path d="M121.499 33.822C120.852 33.822 120.398 33.6546 120.144 33.3227C119.891 32.9908 119.762 32.5312 119.762 31.9496V24.8544H118.079V23.6543C118.64 23.6543 119.055 23.6089 119.326 23.5181C119.598 23.4274 119.768 23.1976 119.84 22.8316C119.908 22.4656 119.944 21.867 119.944 21.033H121.389V23.6572H123.86V24.8572H121.389V32.5284H123.887V33.8277H121.499V33.822Z" fill="white"/>
<path d="M129.831 34.0719C128.849 34.0719 128.043 33.8393 127.414 33.3712C126.784 32.9031 126.312 32.279 126.008 31.496C125.701 30.713 125.548 29.8222 125.548 28.8236C125.548 27.2916 125.904 26.0405 126.614 25.0759C127.324 24.1113 128.396 23.6262 129.834 23.6262C130.571 23.6262 131.189 23.734 131.687 23.9525C132.186 24.1681 132.589 24.4518 132.896 24.8007C133.204 25.1497 133.427 25.527 133.568 25.9327L133.595 25.8022V23.6291H135.328V33.8223H133.884L133.621 31.8846L133.568 31.8478C133.409 32.1825 133.183 32.5173 132.884 32.8606C132.586 33.201 132.189 33.4904 131.687 33.723C131.183 33.9556 130.565 34.0719 129.831 34.0719ZM130.488 32.6478C131.574 32.6478 132.359 32.3017 132.839 31.6095C133.32 30.9172 133.562 29.9981 133.562 28.8491C133.562 27.6178 133.311 26.6873 132.813 26.0632C132.314 25.439 131.538 25.127 130.488 25.127C129.33 25.127 128.503 25.4759 128.005 26.1767C127.506 26.8774 127.256 27.7597 127.256 28.8264C127.256 29.9413 127.509 30.8577 128.017 31.5754C128.524 32.2903 129.348 32.6478 130.488 32.6478Z" fill="white"/>
<path d="M137.664 33.823V19.7573H139.32V33.823H137.664Z" fill="white"/>
<path d="M88.2769 49.9759C87.2951 49.9759 86.4893 49.7433 85.8595 49.2752C85.2298 48.8099 84.7583 48.1829 84.4539 47.3999C84.1465 46.6169 83.9943 45.7261 83.9943 44.7275C83.9943 43.1955 84.3494 41.9444 85.0597 40.9798C85.77 40.0153 86.8414 39.5302 88.2799 39.5302C89.0171 39.5302 89.6349 39.638 90.1333 39.8564C90.6317 40.072 91.0346 40.3557 91.342 40.7047C91.6493 41.0536 91.8732 41.4309 92.0134 41.8366L92.0403 41.7061V39.533H93.7743V49.7262H92.3238L92.0612 47.7886L92.0075 47.7517C91.8493 48.0865 91.6225 48.4212 91.324 48.7645C91.0256 49.1049 90.6287 49.3943 90.1273 49.6269C89.6319 49.8596 89.0141 49.9759 88.2769 49.9759ZM88.9335 48.5517C90.0199 48.5517 90.8048 48.2056 91.2852 47.5134C91.7657 46.8212 92.0075 45.902 92.0075 44.753C92.0075 43.5218 91.7568 42.5912 91.2584 41.9671C90.76 41.343 89.984 41.0309 88.9335 41.0309C87.7756 41.0309 86.9489 41.3799 86.4505 42.0806C85.9521 42.7813 85.7014 43.6636 85.7014 44.7303C85.7014 45.8453 85.955 46.7616 86.4624 47.4794C86.9727 48.1914 87.7935 48.5517 88.9335 48.5517Z" fill="white"/>
<path d="M98.4243 49.7273C97.7767 49.7273 97.323 49.5599 97.0694 49.228C96.8157 48.8961 96.6874 48.4365 96.6874 47.8549V40.7596H95.0042V39.5596C95.5652 39.5596 95.9801 39.5142 96.2516 39.4234C96.5232 39.3326 96.6933 39.1028 96.765 38.7369C96.8336 38.3709 96.8694 37.7723 96.8694 36.9382H98.3139V39.5624H100.785V40.7625H98.3139V48.4336H100.812V49.733H98.4243V49.7273Z" fill="white"/>
<path d="M103.495 49.7272V39.5566H105.178V49.7272H103.495Z" fill="white"/>
<path d="M115.48 39.5566H117.163V39.9056L113.116 49.7243H110.726L106.649 39.9056V39.5566H108.332L111.907 48.4023H111.961L115.48 39.5566Z" fill="white"/>
<path d="M120.028 38.4589C119.643 38.4589 119.383 38.3624 119.252 38.1723C119.121 37.9823 119.055 37.7354 119.055 37.4347C119.055 37.1851 119.121 36.9638 119.252 36.7737C119.383 36.5836 119.643 36.4872 120.028 36.4872C120.413 36.4872 120.673 36.5836 120.804 36.7737C120.935 36.9666 121.001 37.1851 121.001 37.4347C121.001 37.7354 120.935 37.9794 120.804 38.1723C120.673 38.3624 120.413 38.4589 120.028 38.4589ZM119.186 49.7273V39.5568H120.87V49.7273H119.186Z" fill="white"/>
<path d="M127.597 49.976C126.579 49.976 125.744 49.7717 125.087 49.3632C124.43 48.9547 123.938 48.4752 123.616 47.9277C123.29 47.3773 123.129 46.8865 123.129 46.4553H124.759C124.759 46.4723 124.771 46.5971 124.797 46.8298C124.824 47.0624 124.917 47.3291 125.072 47.6298C125.23 47.9305 125.502 48.1915 125.887 48.4185C126.272 48.6426 126.833 48.7561 127.57 48.7561C128.358 48.7561 129.038 48.6227 129.608 48.3561C130.178 48.0894 130.453 47.6723 130.435 47.1078C130.435 46.6255 130.265 46.2539 129.922 45.9957C129.582 45.7375 129.137 45.5389 128.594 45.3971C128.051 45.2553 127.48 45.1191 126.887 44.9857C126.29 44.8524 125.726 44.6822 125.191 44.4722C124.657 44.2651 124.224 43.9673 123.89 43.5843C123.556 43.2013 123.392 42.6679 123.392 41.9842C123.392 41.1502 123.786 40.4892 124.574 39.9984C125.362 39.5076 126.37 39.2607 127.597 39.2607C128.28 39.2607 128.973 39.3657 129.674 39.5728C130.375 39.7827 130.954 40.1402 131.408 40.648C131.865 41.1558 132.074 41.8679 132.038 42.7843H130.462C130.498 42.1516 130.349 41.675 130.014 41.3601C129.68 41.0452 129.283 40.8324 128.818 40.7218C128.352 40.614 127.928 40.5601 127.543 40.5601C126.788 40.5601 126.17 40.6934 125.69 40.9601C125.206 41.2268 124.968 41.6012 124.968 42.0835C124.968 42.5488 125.138 42.9034 125.481 43.1445C125.821 43.3857 126.26 43.5786 126.794 43.7205C127.328 43.8623 127.898 43.9956 128.501 44.1205C129.107 44.2453 129.68 44.4155 130.223 44.634C130.766 44.8496 131.208 45.1588 131.551 45.5588C131.891 45.9588 132.065 46.5092 132.065 47.2071C132.065 48.1745 131.635 48.8781 130.775 49.3178C129.919 49.7547 128.859 49.976 127.597 49.976Z" fill="white"/>
<path d="M136.586 49.7273C135.939 49.7273 135.485 49.5599 135.231 49.228C134.978 48.8961 134.849 48.4365 134.849 47.8549V40.7596H133.166V39.5596C133.727 39.5596 134.142 39.5142 134.414 39.4234C134.685 39.3326 134.855 39.1028 134.927 38.7369C134.995 38.3709 135.031 37.7723 135.031 36.9382H136.476V39.5624H138.947V40.7625H136.476V48.4336H138.974V49.733H136.586V49.7273Z" fill="white"/>
<path d="M144.919 49.9756C143.937 49.9756 143.131 49.743 142.501 49.2749C141.872 48.8068 141.4 48.1827 141.096 47.3997C140.788 46.6167 140.636 45.7259 140.636 44.7272C140.636 43.1953 140.991 41.9442 141.701 40.9796C142.412 40.015 143.483 39.5299 144.922 39.5299C145.659 39.5299 146.277 39.6377 146.775 39.8562C147.273 40.0718 147.676 40.3555 147.984 40.7044C148.291 41.0534 148.515 41.4307 148.655 41.8364L148.682 41.7059V39.5327H150.416V49.726H148.972L148.709 47.7883L148.655 47.7515C148.497 48.0862 148.27 48.421 147.972 48.7643C147.673 49.1047 147.276 49.3941 146.775 49.6267C146.271 49.8593 145.656 49.9756 144.919 49.9756ZM145.575 48.5515C146.662 48.5515 147.446 48.2054 147.927 47.5132C148.407 46.8209 148.649 45.9018 148.649 44.7528C148.649 43.5215 148.399 42.591 147.9 41.9669C147.402 41.3427 146.626 41.0307 145.575 41.0307C144.417 41.0307 143.591 41.3796 143.092 42.0803C142.594 42.7811 142.343 43.6634 142.343 44.7301C142.343 45.845 142.597 46.7614 143.104 47.4791C143.611 48.1912 144.435 48.5515 145.575 48.5515Z" fill="white"/>
<path d="M68.2477 43.4218L68.2468 43.4198L51.1273 3.64222C51.1272 3.64186 51.127 3.64151 51.1269 3.64115C50.4201 1.95913 48.7588 0.859733 46.8095 0.757702C44.8586 0.655585 43.0894 1.57566 42.1604 3.17439L42.1603 3.1746L25.7854 31.4179L25.7854 31.4179L25.7842 31.42C25.027 32.7558 24.9416 34.3025 25.5603 35.6935C26.1789 37.0844 27.4392 38.1303 28.993 38.5878L28.9946 38.5883L63.2088 48.4173L63.2087 48.4175L63.2185 48.4199C63.6234 48.5188 64.0195 48.5977 64.4494 48.5977C65.5479 48.5977 66.6508 48.1855 67.4468 47.4042L67.4469 47.4043L67.4519 47.3991C68.5018 46.3074 68.8213 44.7878 68.2477 43.4218ZM27.1493 32.133L27.1499 32.132L43.5245 3.88918C44.1146 2.87565 45.2527 2.25734 46.5036 2.25734H46.504H46.5045H46.505H46.5054H46.5059H46.5064H46.5068H46.5073H46.5077H46.5082H46.5087H46.5091H46.5096H46.5101H46.5105H46.511H46.5114H46.5119H46.5123H46.5128H46.5133H46.5137H46.5142H46.5146H46.5151H46.5155H46.516H46.5164H46.5169H46.5173H46.5178H46.5182H46.5187H46.5191H46.5196H46.52H46.5205H46.5209H46.5214H46.5218H46.5223H46.5227H46.5232H46.5236H46.524H46.5245H46.5249H46.5254H46.5258H46.5263H46.5267H46.5271H46.5276H46.528H46.5284H46.5289H46.5293H46.5298H46.5302H46.5306H46.5311H46.5315H46.5319H46.5324H46.5328H46.5332H46.5337H46.5341H46.5345H46.535H46.5354H46.5358H46.5363H46.5367H46.5371H46.5375H46.538H46.5384H46.5388H46.5393H46.5397H46.5401H46.5405H46.541H46.5414H46.5418H46.5422H46.5427H46.5431H46.5435H46.5439H46.5443H46.5448H46.5452H46.5456H46.546H46.5465H46.5469H46.5473H46.5477H46.5481H46.5485H46.549H46.5494H46.5498H46.5502H46.5506H46.5511H46.5515H46.5519H46.5523H46.5527H46.5531H46.5535H46.554H46.5544H46.5548H46.5552H46.5556H46.556H46.5564H46.5568H46.5573H46.5577H46.5581H46.5585H46.5589H46.5593H46.5597H46.5601H46.5605H46.5609H46.5614H46.5618H46.5622H46.5626H46.563H46.5634H46.5638H46.5642H46.5646H46.565H46.5654H46.5658H46.5662H46.5666H46.567H46.5674H46.5678H46.5682H46.5687H46.5691H46.5695H46.5699H46.5703H46.5707H46.5711H46.5715H46.5719H46.5723H46.5727H46.5731H46.5735H46.5739H46.5743H46.5747H46.5751H46.5755H46.5759H46.5763H46.5767H46.5771H46.5775H46.5779H46.5783H46.5787H46.5791H46.5795H46.5799H46.5802H46.5806H46.581H46.5814H46.5818H46.5822H46.5826H46.583H46.5834H46.5838H46.5842H46.5846H46.585H46.5854H46.5858H46.5862H46.5866H46.587H46.5874H46.5878H46.5882H46.5885H46.5889H46.5893H46.5897H46.5901H46.5905H46.5909H46.5913H46.5917H46.5921H46.5925H46.5929H46.5933H46.5937H46.594H46.5944H46.5948H46.5952H46.5956H46.596H46.5964H46.5968H46.5972H46.5976H46.598H46.5984H46.5987H46.5991H46.5995H46.5999H46.6003H46.6007H46.6011H46.6015H46.6019H46.6023H46.6026H46.603H46.6034H46.6038H46.6042H46.6046H46.605H46.6054H46.6058H46.6062H46.6066H46.6069H46.6073H46.6077H46.6081H46.6085H46.6089H46.6093H46.6097H46.6101H46.6105H46.6108H46.6112H46.6116H46.612H46.6124H46.6128H46.6132H46.6136H46.614H46.6144H46.6147H46.6151H46.6155H46.6159H46.6163H46.6167H46.6171H46.6175H46.6179H46.6183H46.6186H46.619H46.6194H46.6198H46.6202H46.6206H46.621H46.6214H46.6218H46.6222H46.6226H46.6229H46.6233H46.6237H46.6241H46.6245H46.6249H46.6253H46.6257H46.6261H46.6265H46.6269H46.6273H46.6277H46.628H46.6284H46.6288H46.6292H46.6296H46.63H46.6304H46.6308H46.6312H46.6316H46.632H46.6324H46.6328H46.6332H46.6336H46.6339H46.6343H46.6347H46.6351H46.6355H46.6359H46.6363H46.6367H46.6371H46.6375H46.6379H46.6383H46.6387H46.6391H46.6395H46.6399H46.6403H46.6407H46.6411H46.6415H46.6419H46.6423H46.6427H46.6431H46.6435H46.6439H46.6443H46.6447H46.6451H46.6455H46.6459H46.6463H46.6467H46.6471H46.6475H46.6479H46.6483H46.6487H46.6491H46.6495H46.6499H46.6503H46.6507H46.6511H46.6515H46.6519H46.6523H46.6527H46.6531H46.6535H46.6539H46.6543H46.6547H46.6551H46.6555H46.6559H46.6563H46.6567H46.6571H46.6576H46.658H46.6584H46.6588H46.6592H46.6596H46.66H46.6604H46.6608H46.6612H46.6616H46.6621H46.6625H46.6629H46.6633H46.6637H46.6641H46.6645H46.6649H46.6653H46.6658H46.6662H46.6666H46.667H46.6674H46.6678H46.6682H46.6687H46.6691H46.6695H46.6699H46.6703H46.6707H46.6712H46.6716H46.672H46.6724H46.6728H46.6733H46.6737H46.6741H46.6745H46.6749H46.6754H46.6758H46.6762H46.6766H46.677H46.6775H46.6779H46.6783H46.6787H46.6792H46.6796H46.68H46.6804H46.6809H46.6813H46.6817H46.6822H46.6826H46.683H46.6834H46.6839H46.6843H46.6847H46.6852H46.6856H46.686H46.6865H46.6869H46.6873H46.6878H46.6882H46.6886H46.6891H46.6895H46.6899H46.6904H46.6908H46.6912H46.6917H46.6921H46.6926H46.693H46.6934H46.6939H46.6943H46.6948H46.6952H46.6956H46.6961H46.6965H46.697H46.6974H46.6979H46.6983H46.6988H46.6992H46.6996H46.7001H46.7005H46.701H46.7014H46.7019H46.7023H46.7028H46.7032H46.7037H46.7041H46.7046H46.7051H46.7055H46.706H46.7064H46.7069H46.7073H46.7078H46.7082H46.7087H46.7092H46.7096H46.7101H46.7101C48.0575 2.32805 49.1646 3.08026 49.6557 4.20434C49.6558 4.20453 49.6559 4.20471 49.6559 4.2049L66.7491 43.9831L66.749 43.9832L66.7527 43.9912C67.1294 44.789 66.9476 45.7007 66.2712 46.3645C65.5924 47.0307 64.5946 47.2789 63.6391 47.0097C63.6389 47.0097 63.6387 47.0096 63.6385 47.0096L29.4265 37.1812C29.4264 37.1811 29.4263 37.1811 29.4263 37.1811C28.3197 36.8585 27.4216 36.1003 26.9746 35.1222C26.5307 34.1509 26.6028 33.066 27.1493 32.133Z" fill="#7700FF" stroke="#7700FF" stroke-width="0.5"/>
<path d="M33.4472 11.1818L33.4469 11.1817L16.5676 6.27979C16.5673 6.27971 16.5671 6.27964 16.5668 6.27957C15.509 5.96554 14.422 6.14965 13.5378 6.72446L13.5378 6.72441L13.5335 6.72729C12.6467 7.32997 12.1194 8.25764 12.1194 9.27547V44.2503C12.1194 46.4716 13.6698 48.3897 15.9474 49.0513L32.9863 54.0263C32.9864 54.0263 32.9865 54.0263 32.9866 54.0263C35.1378 54.6667 37.2651 54.9879 39.3147 54.9879C42.66 54.9879 45.7714 54.0982 48.2666 52.4337L48.2667 52.4336C52.1791 49.8204 54.3154 45.4933 54.3154 40.3236V36.7627C54.3154 31.5479 52.1313 26.0059 48.1882 21.19C44.245 16.374 39.0113 12.8068 33.4472 11.1818ZM16.0772 7.78291L16.0803 7.78382L32.9873 12.7104C38.2607 14.2562 43.2244 17.616 46.9489 22.1892L46.9494 22.1898C50.7013 26.7641 52.7504 31.9779 52.7504 36.8602V40.226C52.7504 44.9335 50.8133 48.8016 47.3502 51.1397C43.6985 53.5524 38.7732 54.0681 33.4199 52.5221L16.381 47.5471C14.7422 47.0621 13.6578 45.7106 13.6578 44.1527V9.37303C13.6578 8.85215 13.931 8.34234 14.3991 8.01974C14.8955 7.69594 15.5098 7.60964 16.0772 7.78291Z" fill="#FF2626" stroke="#FF2626" stroke-width="0.5"/>
<path d="M2.16838 17.9681L2.16841 17.9681C3.05267 17.3933 4.13973 17.2092 5.19759 17.5233C5.19779 17.5233 5.198 17.5234 5.1982 17.5234L18.8292 21.4985L2.16838 17.9681ZM2.16838 17.9681L2.16414 17.9709M2.16838 17.9681L2.16414 17.9709M2.16414 17.9709C1.27631 18.5743 0.75 19.5025 0.75 20.5435M2.16414 17.9709L0.75 20.5435M21.2128 63.7517L21.2127 63.7517C20.614 64.1435 19.9276 64.3535 19.2121 64.3535C18.8673 64.3535 18.5237 64.3009 18.1822 64.1968C18.1816 64.1966 18.1811 64.1964 18.1805 64.1962L4.57801 60.2217L21.2128 63.7517ZM21.2128 63.7517L21.2164 63.7493M21.2128 63.7517L21.2164 63.7493M21.2164 63.7493C22.1032 63.1466 22.6305 62.2189 22.6305 61.2011M21.2164 63.7493L22.6305 61.2011M0.75 20.5435V55.4208M0.75 20.5435V55.4208M0.75 55.4208C0.75 57.6419 2.30025 59.56 4.57762 60.2216L0.75 55.4208ZM22.6305 61.2011V26.3239M22.6305 61.2011V26.3239M22.6305 26.3239C22.6305 24.0811 21.1097 22.161 18.8294 21.4986L22.6305 26.3239ZM2.31503 20.5435C2.31503 20 2.58675 19.5138 3.0563 19.1902C3.38712 18.9744 3.76452 18.8667 4.14185 18.8667C4.33563 18.8667 4.5197 18.8889 4.69965 18.9507L4.69956 18.951L4.71075 18.9543L18.3157 22.9295C18.3158 22.9296 18.316 22.9296 18.3161 22.9296C19.9537 23.4144 21.0389 24.7895 21.0389 26.3239V61.2011H21.0386L21.0391 61.212C21.0616 61.7276 20.8171 62.2075 20.3266 62.5285C19.8311 62.8527 19.2399 62.9422 18.6391 62.7892L5.03819 58.8151C5.03799 58.815 5.0378 58.815 5.0376 58.8149C3.40011 58.3301 2.31503 56.955 2.31503 55.4208V20.5435Z" fill="#48FEA7" stroke="#48FEA7" stroke-width="0.5"/>
</svg>
