<svg width="322" height="329" viewBox="0 0 322 329" fill="none" xmlns="http://www.w3.org/2000/svg">
<path style="fill: #1d1d1d;" d="M319.479 218.94L239.5 15.9858C235.806 6.82011 227.547 0.709667 217.55 0.0549763C207.552 -0.599714 198.642 4.63781 194.078 13.367L117.359 157.399C113.447 164.601 113.013 173.112 116.273 180.75C119.315 188.388 125.618 194.062 133.442 196.462L293.616 246.655C295.789 247.31 297.963 247.528 299.919 247.528C305.787 247.528 311.22 245.127 315.349 240.763C321 235.089 322.521 226.578 319.479 218.94ZM216.028 11.1847C216.246 11.1847 216.68 11.1847 216.898 11.1847C222.331 11.4029 227.112 14.8946 229.068 19.9139L309.047 222.868C310.568 226.36 309.699 230.506 307.091 233.343C304.483 236.18 300.571 237.271 296.876 235.962L136.702 185.769C132.138 184.241 128.226 180.968 126.487 176.385C124.749 171.802 124.966 166.783 127.139 162.636L203.858 18.6045C206.248 14.0217 210.812 11.1847 216.028 11.1847Z" fill="#4F4F4F"/>
<path style="fill: #1d1d1d;" d="M155.61 53.9582L76.5011 28.8617C71.0678 27.1158 65.1998 27.9888 60.4185 31.4805C55.6372 34.9721 53.0292 40.2097 53.0292 45.8836V223.959C53.0292 235.962 60.8531 246.655 72.1544 250.147L152.133 275.462C162.347 278.735 172.562 280.481 182.342 280.481C198.425 280.481 213.42 275.898 225.374 266.951C244.064 253.202 254.496 230.725 254.496 203.664V185.987C254.496 130.557 210.161 71.1983 155.61 53.9582ZM155.393 264.768L75.6317 239.454C68.8944 237.271 64.3305 230.943 64.3305 223.959V45.8836C64.3305 43.7013 65.4171 41.7373 67.1558 40.4279C68.2424 39.555 69.7638 39.1185 71.0678 39.1185C71.7198 39.1185 72.3718 39.3367 73.2411 39.555L152.133 64.6514C202.337 80.5822 243.412 135.14 243.195 186.206V203.882C243.195 227.233 234.502 246.437 218.636 258.003C202.119 270.006 179.734 272.407 155.393 264.768Z" fill="#4F4F4F"/>
<path style="fill: #1d1d1d;" d="M87.1503 105.896L23.4719 85.6009C18.0386 83.8551 12.1706 84.728 7.3893 88.2197C2.82532 91.7114 0 96.9489 0 102.841V280.699C0 292.701 7.82397 303.395 19.1253 306.886L82.8037 327.182C84.5423 327.836 86.4983 328.055 88.237 328.055C91.9316 328.055 95.6263 326.963 98.6689 324.563C103.45 321.071 106.058 315.834 106.058 310.16V132.084C106.276 120.3 98.6689 109.606 87.1503 105.896ZM95.1916 310.16C95.1916 312.342 94.1049 314.306 92.3663 315.616C90.6276 316.925 88.4543 317.361 86.281 316.707L22.6026 296.411C15.8653 294.229 11.3013 287.9 11.3013 280.917V103.059C11.3013 100.877 12.3879 98.913 14.1266 97.6036C15.2133 96.5125 16.5173 96.076 18.0386 96.076C18.6906 96.076 19.5599 96.2942 20.2119 96.2942L83.8903 116.59C90.6276 118.772 95.1916 125.101 95.1916 132.084V310.16Z" fill="#4F4F4F"/>
</svg>
