<svg width="19" height="18" viewBox="0 0 19 18" fill="none" xmlns="http://www.w3.org/2000/svg">
  <path d="M18.1007 0.41295C17.8456 0.157315 17.4993 0.0136519 17.1382 0.0136519C16.7771 0.0136519 16.4308 0.157315 16.1758 0.41295L9.5 7.07507L2.82423 0.399298C2.56917 0.143663 2.22289 0 1.86177 0C1.50066 0 1.15438 0.143663 0.899317 0.399298C0.366894 0.931721 0.366894 1.79179 0.899317 2.32421L7.57508 8.99998L0.899317 15.6757C0.366894 16.2082 0.366894 17.0682 0.899317 17.6007C1.43174 18.1331 2.29181 18.1331 2.82423 17.6007L9.5 10.9249L16.1758 17.6007C16.7082 18.1331 17.5683 18.1331 18.1007 17.6007C18.6331 17.0682 18.6331 16.2082 18.1007 15.6757L11.4249 8.99998L18.1007 2.32421C18.6195 1.80544 18.6195 0.931721 18.1007 0.41295Z" fill="white"/>
</svg>
