<?xml version="1.0" encoding="utf-8"?>
<!-- Generator: Adobe Illustrator 22.1.0, SVG Export Plug-In . SVG Version: 6.00 Build 0)  -->
<svg version="1.1" id="Layer_1" xmlns="http://www.w3.org/2000/svg" xmlns:xlink="http://www.w3.org/1999/xlink" x="0px" y="0px"
	 viewBox="0 0 50 50" style="enable-background:new 0 0 50 50;" xml:space="preserve">
<style type="text/css">
	.st0{fill:#FFFFFF;}
</style>
<path class="st0" d="M14.5,36.4l22.5-8.9c1-0.4,1.7-1.3,1.8-2.4c0.1-1.1-0.5-2.1-1.5-2.6l-15.9-8.5c-0.8-0.4-1.7-0.5-2.6-0.1
	c-0.8,0.3-1.5,1-1.7,1.9l-5.6,17.8c-0.1,0.2-0.1,0.5-0.1,0.7c0,0.7,0.3,1.3,0.7,1.7C12.7,36.5,13.6,36.7,14.5,36.4z M37.5,24.8
	C37.5,24.9,37.5,24.9,37.5,24.8c0,0.7-0.4,1.2-1,1.5L14,35.2c-0.4,0.2-0.8,0.1-1.2-0.2c-0.3-0.3-0.4-0.7-0.3-1.1L18.1,16
	c0.2-0.5,0.5-0.9,1-1.1c0.5-0.2,1.1-0.2,1.5,0.1l15.9,8.5C37.1,23.7,37.5,24.2,37.5,24.8z"/>
<path class="st0" d="M25,50C11.2,50,0,38.8,0,25S11.2,0,25,0s25,11.2,25,25S38.8,50,25,50z M25,2C12.3,2,2,12.3,2,25
	c0,12.7,10.3,23,23,23c12.7,0,23-10.3,23-23C48,12.3,37.7,2,25,2z"/>
</svg>
