<svg width="68" height="25" viewBox="0 0 68 25" fill="none" xmlns="http://www.w3.org/2000/svg">
<path d="M8.65031 0.229065H0.143066V24.3445H8.65031V0.229065Z" fill="black"/>
<path d="M10.5388 0.228821V24.3443C15.1668 24.3443 19.7947 21.1505 19.7947 11.945C19.8117 4.00327 15.1838 0.228821 10.5388 0.228821Z" fill="black"/>
<path d="M30.9561 8.69987C30.9561 6.71871 29.646 5.79645 28.1657 5.79645H24.0142V11.6204H28.1657C29.646 11.6033 30.9561 10.681 30.9561 8.69987ZM25.4774 10.3565V7.04321H27.6042C28.7102 7.04321 29.4758 7.28232 29.4758 8.69987C29.4758 10.1174 28.7272 10.3565 27.6042 10.3565H25.4774V10.3565Z" fill="black"/>
<path d="M34.9037 6.63336C32.947 6.63336 31.5688 7.36776 31.5688 9.17812C31.5688 10.9714 32.9981 11.7058 34.8186 11.7058C36.6051 11.7058 37.7961 11.108 38.1194 9.86128H36.7242C36.3669 10.3566 35.7884 10.5444 34.8186 10.5444C33.8828 10.5444 33.1512 10.2883 32.9981 9.50262H38.2045C38.2045 7.26528 36.7242 6.63336 34.9037 6.63336ZM33.0491 8.59744C33.2703 7.91428 33.9339 7.70934 34.9037 7.70934C35.7884 7.70934 36.469 7.8972 36.7072 8.59744H33.0491Z" fill="black"/>
<path d="M38.6299 9.89551C38.6299 11.4668 40.3484 11.7059 42.2029 11.7059C44.0575 11.7059 45.2826 11.4668 45.2826 10.0834C45.2826 8.78538 43.9895 8.73414 42.1179 8.58043C40.4504 8.46088 40.1952 8.40964 40.1952 8.10222C40.1952 7.81188 40.5695 7.72649 41.8967 7.72649C43.1898 7.72649 43.7002 7.82896 43.7002 8.23885H45.1124C45.1124 6.88962 43.7853 6.65051 41.9817 6.65051C40.2633 6.65051 38.783 6.88962 38.783 8.17054C38.783 9.34898 39.8209 9.51977 41.9477 9.63933C43.6492 9.7418 43.8704 9.77596 43.8704 10.1517C43.8704 10.5274 43.6322 10.6299 42.1179 10.6299C40.5525 10.6299 40.0251 10.425 40.0251 9.91259H38.6299V9.89551Z" fill="black"/>
<path d="M47.3412 4.95978H45.946V6.20654H47.3412V4.95978Z" fill="black"/>
<path d="M47.3412 6.71881H45.946V11.6205H47.3412V6.71881Z" fill="black"/>
<path d="M50.8122 11.5522C51.9522 11.5522 52.7689 11.2277 53.2453 10.6811C53.1942 11.945 52.6498 12.5086 51.2036 12.5086C50.1316 12.5086 49.0597 12.2695 48.4982 12.167V13.3113C48.9576 13.4309 50.1146 13.7041 51.5268 13.7041C53.3474 13.7041 54.6745 12.8331 54.6745 10.8519V6.73591H53.2623V7.52154C52.7859 6.97501 51.9692 6.65051 50.8292 6.65051C49.1788 6.65051 48.0048 7.38491 48.0048 9.10988C47.9878 10.8178 49.1618 11.5522 50.8122 11.5522ZM51.3227 7.82896C52.6328 7.82896 53.2623 8.20469 53.2623 9.10988C53.2623 10.0151 52.6498 10.3737 51.3227 10.3908C49.9955 10.3908 49.383 10.0151 49.383 9.10988C49.383 8.18762 50.0125 7.82896 51.3227 7.82896Z" fill="black"/>
<path d="M60.7657 11.6033H62.1779L62.1949 8.88771C62.1779 7.07734 60.9699 6.61621 59.6938 6.61621C58.5198 6.61621 57.567 7.00903 56.8864 7.55555V6.70161H55.4912V11.6033H56.8864V8.85355C57.3288 8.34118 58.3326 7.84589 59.2854 7.84589C60.4424 7.84589 60.7827 8.39242 60.7827 9.43424V11.6033H60.7657Z" fill="black"/>
<path d="M26.8897 13.5505L23.9292 19.3745H25.5456L26.1581 18.1277H29.595L30.2075 19.3745H31.8409L28.8804 13.5505H26.8897V13.5505ZM26.7196 17.0176L27.8936 14.6607L29.0506 17.0176H26.7196Z" fill="black"/>
<path d="M33.7466 13.0551L32.3344 13.4649V14.4726H31.0583V15.6681H32.3344V17.9055C32.3344 18.9815 33.1341 19.4597 34.3762 19.4597C35.0227 19.4597 35.5502 19.4255 36.0266 19.3401V18.1958C35.4651 18.2812 35.2099 18.2812 34.7675 18.2812C33.9168 18.2812 33.7296 18.0421 33.7296 17.0857V15.6681H36.0436V14.4726H33.7637V13.0551H33.7466Z" fill="black"/>
<path d="M38.1193 14.4726H36.7241V19.3742H38.1193V14.4726Z" fill="black"/>
<path d="M38.1193 12.7307H36.7241V13.9775H38.1193V12.7307Z" fill="black"/>
<path d="M42.0837 18.3666L40.195 14.4726H38.6467L41.0798 19.3742H43.0705L45.5206 14.4726H43.9723L42.0837 18.3666Z" fill="black"/>
<path d="M47.3923 14.4726H45.9971V19.3742H47.3923V14.4726Z" fill="black"/>
<path d="M47.3923 12.7307H45.9971V13.9775H47.3923V12.7307Z" fill="black"/>
<path d="M51.5268 16.3342C49.8594 16.2147 49.6042 16.1634 49.6042 15.856C49.6042 15.5657 49.9785 15.4803 51.3056 15.4803C52.5987 15.4803 53.1091 15.5827 53.1091 15.9926H54.5213C54.5213 14.6434 53.1942 14.4043 51.3907 14.4043C49.6722 14.4043 48.1919 14.6434 48.1919 15.9243C48.1919 17.1028 49.2298 17.2736 51.3566 17.3931C53.0581 17.4956 53.2793 17.5297 53.2793 17.9055C53.2793 18.2812 53.0411 18.3837 51.5268 18.3837C49.9615 18.3837 49.434 18.1787 49.434 17.6664H48.0388C48.0388 19.2376 49.7573 19.4767 51.6119 19.4767C53.4664 19.4767 54.6915 19.2376 54.6915 17.8542C54.7085 16.5221 53.4154 16.4879 51.5268 16.3342Z" fill="black"/>
<path d="M57.6351 13.0551L56.2229 13.4649V14.4726H54.9468V15.6681H56.2229V17.9055C56.2229 18.9815 57.0225 19.4597 58.2646 19.4597C58.9112 19.4597 59.4386 19.4255 59.915 19.3401V18.1958C59.3535 18.2812 59.0983 18.2812 58.6559 18.2812C57.8052 18.2812 57.618 18.0421 57.618 17.0857V15.6681H59.898V14.4726H57.618V13.0551H57.6351Z" fill="black"/>
<path d="M63.8284 14.3871C62.8246 14.3871 61.8547 14.575 60.8679 14.8995L61.3613 15.9413C62.3482 15.6339 63.1138 15.5827 63.7604 15.5827C64.4239 15.5827 65.5979 15.651 65.5979 16.5903C64.9684 16.3683 64.2027 16.2487 63.386 16.2487C61.8547 16.2487 60.4766 16.6416 60.4766 17.9225C60.4766 19.0326 61.3273 19.4767 62.6714 19.4767C63.8114 19.4767 64.7472 19.2034 65.5979 18.7935V19.4084H67.0101V16.9319C66.9931 15.0532 65.8531 14.3871 63.8284 14.3871ZM65.5979 17.8542C64.8833 18.1787 63.8284 18.4178 63.0628 18.4178C62.3311 18.4178 61.8717 18.3836 61.8717 17.8542C61.8717 17.3589 62.5013 17.171 63.5562 17.171C64.4409 17.171 65.1045 17.3076 65.5979 17.4784V17.8542Z" fill="black"/>
</svg>
