<svg width="68" height="25" viewBox="0 0 68 25" fill="none" xmlns="http://www.w3.org/2000/svg">
<path d="M8.65044 0.229004H0.143188V24.3445H8.65044V0.229004Z" fill="white"/>
<path d="M10.5391 0.22876V24.3442C15.167 24.3442 19.795 21.1505 19.795 11.9449C19.812 4.00321 15.184 0.22876 10.5391 0.22876Z" fill="white"/>
<path d="M30.9562 8.69981C30.9562 6.71865 29.6461 5.79639 28.1658 5.79639H24.0143V11.6203H28.1658C29.6461 11.6032 30.9562 10.681 30.9562 8.69981ZM25.4775 10.3565V7.04315H27.6043C28.7103 7.04315 29.4759 7.28225 29.4759 8.69981C29.4759 10.1174 28.7273 10.3565 27.6043 10.3565H25.4775V10.3565Z" fill="white"/>
<path d="M34.9039 6.6333C32.9473 6.6333 31.5691 7.3677 31.5691 9.17806C31.5691 10.9714 32.9983 11.7057 34.8189 11.7057C36.6054 11.7057 37.7964 11.108 38.1197 9.86122H36.7245C36.3672 10.3565 35.7887 10.5444 34.8189 10.5444C33.8831 10.5444 33.1514 10.2882 32.9983 9.50256H38.2047C38.2047 7.26522 36.7245 6.6333 34.9039 6.6333ZM33.0494 8.59738C33.2705 7.91422 33.9341 7.70927 34.9039 7.70927C35.7887 7.70927 36.4693 7.89714 36.7075 8.59738H33.0494Z" fill="white"/>
<path d="M38.6299 9.89539C38.6299 11.4666 40.3484 11.7058 42.2029 11.7058C44.0575 11.7058 45.2826 11.4666 45.2826 10.0833C45.2826 8.78526 43.9895 8.73402 42.1179 8.58031C40.4504 8.46076 40.1952 8.40952 40.1952 8.1021C40.1952 7.81176 40.5695 7.72636 41.8967 7.72636C43.1898 7.72636 43.7002 7.82884 43.7002 8.23873H45.1124C45.1124 6.8895 43.7853 6.65039 41.9817 6.65039C40.2633 6.65039 38.783 6.88949 38.783 8.17041C38.783 9.34886 39.8209 9.51965 41.9477 9.6392C43.6492 9.74168 43.8704 9.77583 43.8704 10.1516C43.8704 10.5273 43.6322 10.6298 42.1179 10.6298C40.5525 10.6298 40.0251 10.4248 40.0251 9.91246H38.6299V9.89539Z" fill="white"/>
<path d="M47.3414 4.95972H45.9462V6.20648H47.3414V4.95972Z" fill="white"/>
<path d="M47.3414 6.71875H45.9462V11.6204H47.3414V6.71875Z" fill="white"/>
<path d="M50.8123 11.552C51.9523 11.552 52.769 11.2275 53.2454 10.681C53.1944 11.9449 52.6499 12.5085 51.2037 12.5085C50.1318 12.5085 49.0598 12.2694 48.4984 12.1669V13.3112C48.9578 13.4307 50.1147 13.704 51.5269 13.704C53.3475 13.704 54.6746 12.833 54.6746 10.8518V6.73579H53.2624V7.52141C52.786 6.97489 51.9693 6.65039 50.8294 6.65039C49.1789 6.65039 48.0049 7.38478 48.0049 9.10976C47.9879 10.8176 49.1619 11.552 50.8123 11.552ZM51.3228 7.82884C52.6329 7.82884 53.2624 8.20457 53.2624 9.10976C53.2624 10.0149 52.6499 10.3736 51.3228 10.3907C49.9956 10.3907 49.3831 10.0149 49.3831 9.10976C49.3831 8.18749 50.0127 7.82884 51.3228 7.82884Z" fill="white"/>
<path d="M60.7658 11.6033H62.178L62.195 8.88771C62.178 7.07734 60.97 6.61621 59.6939 6.61621C58.5199 6.61621 57.5671 7.00903 56.8865 7.55555V6.70161H55.4913V11.6033H56.8865V8.85355C57.3289 8.34118 58.3328 7.84589 59.2856 7.84589C60.4426 7.84589 60.7828 8.39242 60.7828 9.43424V11.6033H60.7658Z" fill="white"/>
<path d="M26.89 13.5505L23.9294 19.3745H25.5458L26.1583 18.1277H29.5953L30.2078 19.3745H31.8412L28.8807 13.5505H26.89V13.5505ZM26.7198 17.0176L27.8938 14.6607L29.0508 17.0176H26.7198Z" fill="white"/>
<path d="M33.7468 13.0549L32.3346 13.4648V14.4725H31.0585V15.668H32.3346V17.9054C32.3346 18.9813 33.1342 19.4595 34.3763 19.4595C35.0228 19.4595 35.5503 19.4254 36.0267 19.34V18.1957C35.4652 18.2811 35.21 18.2811 34.7676 18.2811C33.9169 18.2811 33.7297 18.042 33.7297 17.0856V15.668H36.0437V14.4725H33.7638V13.0549H33.7468Z" fill="white"/>
<path d="M38.1196 14.4727H36.7244V19.3743H38.1196V14.4727Z" fill="white"/>
<path d="M38.1196 12.7307H36.7244V13.9775H38.1196V12.7307Z" fill="white"/>
<path d="M42.0838 18.3667L40.1952 14.4727H38.6469L41.0799 19.3743H43.0706L45.5207 14.4727H43.9724L42.0838 18.3667Z" fill="white"/>
<path d="M47.3924 14.4727H45.9972V19.3743H47.3924V14.4727Z" fill="white"/>
<path d="M47.3924 12.7307H45.9972V13.9775H47.3924V12.7307Z" fill="white"/>
<path d="M51.5269 16.3342C49.8595 16.2147 49.6043 16.1634 49.6043 15.856C49.6043 15.5657 49.9786 15.4803 51.3057 15.4803C52.5988 15.4803 53.1093 15.5827 53.1093 15.9926H54.5215C54.5215 14.6434 53.1943 14.4043 51.3908 14.4043C49.6723 14.4043 48.1921 14.6434 48.1921 15.9243C48.1921 17.1028 49.23 17.2736 51.3568 17.3931C53.0582 17.4956 53.2794 17.5297 53.2794 17.9055C53.2794 18.2812 53.0412 18.3837 51.5269 18.3837C49.9616 18.3837 49.4341 18.1787 49.4341 17.6664H48.0389C48.0389 19.2376 49.7574 19.4767 51.612 19.4767C53.4666 19.4767 54.6916 19.2376 54.6916 17.8542C54.7086 16.5221 53.4155 16.4879 51.5269 16.3342Z" fill="white"/>
<path d="M57.6351 13.0549L56.2229 13.4648V14.4725H54.9468V15.668H56.2229V17.9054C56.2229 18.9813 57.0225 19.4595 58.2646 19.4595C58.9112 19.4595 59.4386 19.4254 59.915 19.34V18.1957C59.3535 18.2811 59.0983 18.2811 58.6559 18.2811C57.8052 18.2811 57.618 18.042 57.618 17.0856V15.668H59.898V14.4725H57.618V13.0549H57.6351Z" fill="white"/>
<path d="M63.8284 14.3872C62.8246 14.3872 61.8547 14.5751 60.8679 14.8996L61.3613 15.9414C62.3482 15.634 63.1138 15.5827 63.7604 15.5827C64.4239 15.5827 65.5979 15.651 65.5979 16.5904C64.9684 16.3684 64.2027 16.2488 63.386 16.2488C61.8547 16.2488 60.4766 16.6416 60.4766 17.9225C60.4766 19.0327 61.3273 19.4767 62.6714 19.4767C63.8114 19.4767 64.7472 19.2035 65.5979 18.7936V19.4084H67.0101V16.932C66.9931 15.0533 65.8531 14.3872 63.8284 14.3872ZM65.5979 17.8542C64.8833 18.1787 63.8284 18.4178 63.0628 18.4178C62.3311 18.4178 61.8717 18.3837 61.8717 17.8542C61.8717 17.3589 62.5013 17.1711 63.5562 17.1711C64.4409 17.1711 65.1045 17.3077 65.5979 17.4785V17.8542Z" fill="white"/>
</svg>
