<svg width="45" height="30" viewBox="0 0 45 30" fill="none" xmlns="http://www.w3.org/2000/svg">
<path d="M2.93115 2.95972V26.2526H5.51336V5.5517H8.09557V26.2526H10.6778V4.2382L9.36923 2.95972H2.93115Z" fill="black"/>
<path d="M15.8422 2.95972H13.26V26.2526H15.8422V2.95972Z" fill="black"/>
<path d="M26.1712 4.2382L24.8626 2.95972H18.4246V26.2526H21.0068V5.5517H23.589V21.7516H26.1712V4.2382Z" fill="black"/>
<path d="M28.7181 23.6606H26.45H26.1708H23.5886H23.5537V26.2526H23.5886H26.1708H30.6199L31.3004 25.6221V2.95972H28.7181V23.6606Z" fill="black"/>
<path d="M40.9489 2.95972H34.5108L33.8652 3.60771V26.2526H36.4474V18.4766H39.0296V26.2526H41.6119V3.60771L40.9489 2.95972ZM39.0471 15.8846H36.4649V5.5517H39.0471V15.8846Z" fill="black"/>
<path d="M44.5605 29.2124H0V0H44.578V29.2124H44.5605ZM1.16897 28.0215H43.3741V1.19091H1.16897V28.0215Z" fill="black"/>
</svg>
