<svg width="79" height="20" viewBox="0 0 79 20" fill="none" xmlns="http://www.w3.org/2000/svg">
<path d="M6.98869 10.7455H0.354736V18.9681H2.48914V16.2465H6.98869C7.91168 16.2465 8.60392 16.0149 9.10387 15.5324C9.58459 15.0498 9.83457 14.3743 9.83457 13.5057C9.83457 12.6371 9.58459 11.9616 9.10387 11.479C8.60392 10.9965 7.91168 10.7455 6.98869 10.7455ZM6.43106 14.5287H2.48914V12.4827H6.45029C7.23867 12.4827 7.62325 12.8301 7.62325 13.5057C7.60402 14.1812 7.21944 14.5287 6.43106 14.5287Z" fill="black"/>
<path d="M16.5069 14.8183C16.8145 14.4322 16.9491 13.9304 16.9491 13.2934C16.9491 12.946 16.8914 12.6179 16.7761 12.309C16.6607 12.0002 16.5068 11.73 16.2761 11.4984C16.0646 11.2667 15.7762 11.0737 15.43 10.9579C15.0839 10.8228 14.6993 10.7649 14.2378 10.7649H10.9497V18.9681H13.0841V15.8026L15.1031 18.9681H17.7567L15.1801 15.5903C15.7762 15.4552 16.2184 15.2043 16.5069 14.8183ZM14.4494 14.162C14.2186 14.3357 13.911 14.4322 13.4879 14.4322H13.0841V12.4055H13.4879C13.911 12.4055 14.2378 12.502 14.4494 12.6758C14.6801 12.8495 14.7763 13.1004 14.7763 13.4285C14.7955 13.7374 14.6801 13.9883 14.4494 14.162Z" fill="black"/>
<path d="M19.545 12.7144C19.9488 13.1005 20.4103 13.4093 20.9679 13.6409C21.5256 13.8532 22.1217 13.9691 22.7947 13.9691C23.4484 13.9691 24.0638 13.8532 24.6214 13.6409C25.179 13.4286 25.6598 13.1198 26.0636 12.7144C26.4674 12.3284 26.775 11.8652 27.0058 11.344C27.2365 10.8229 27.3327 10.2438 27.3327 9.64548C27.3327 9.02782 27.2173 8.46808 27.0058 7.94693C26.775 7.42578 26.4674 6.96254 26.0636 6.57651C25.6598 6.19048 25.179 5.88165 24.6214 5.65003C24.0638 5.43771 23.4484 5.3219 22.7947 5.3219C22.1217 5.3219 21.5256 5.43771 20.9679 5.65003C20.4103 5.86235 19.9488 6.17117 19.545 6.57651C19.1412 6.98184 18.8335 7.42578 18.6028 7.94693C18.372 8.46808 18.2759 9.04713 18.2759 9.64548C18.2759 10.2631 18.3913 10.8229 18.6028 11.344C18.8143 11.8652 19.1604 12.3091 19.545 12.7144ZM20.6795 8.719C20.7949 8.44877 20.9679 8.19785 21.1794 8.00483C21.391 7.79252 21.6409 7.6381 21.9101 7.52229C22.1793 7.40648 22.487 7.34858 22.7947 7.34858C23.1023 7.34858 23.3908 7.40648 23.6792 7.52229C23.9484 7.6381 24.1984 7.79252 24.4099 8.00483C24.6214 8.21715 24.7945 8.44877 24.9098 8.719C25.0252 8.98922 25.1021 9.29805 25.1021 9.62618C25.1021 9.9543 25.0444 10.2631 24.9098 10.5334C24.7945 10.8036 24.6214 11.0545 24.4099 11.2475C24.1984 11.4598 23.9484 11.6143 23.6792 11.7301C23.41 11.8459 23.1023 11.9038 22.7947 11.9038C22.487 11.9038 22.1986 11.8459 21.9101 11.7301C21.6409 11.6143 21.391 11.4598 21.1794 11.2475C20.9679 11.0352 20.7949 10.8036 20.6795 10.5334C20.5641 10.2631 20.4872 9.9543 20.4872 9.62618C20.5064 9.29805 20.5641 9.00852 20.6795 8.719Z" fill="black"/>
<path d="M35.4089 10.7455H28.5442V18.9681H30.6786V16.2465H35.4281C36.3511 16.2465 37.0433 16.0149 37.5433 15.5324C38.024 15.0498 38.274 14.3743 38.274 13.5057C38.274 12.6371 38.024 11.9616 37.5433 11.479C37.0241 10.9965 36.3127 10.7455 35.4089 10.7455ZM34.8513 14.5287H30.6594V12.4827H34.8513C35.6396 12.4827 36.0242 12.8301 36.0242 13.5057C36.0242 14.1812 35.6396 14.5287 34.8513 14.5287Z" fill="black"/>
<path d="M44.3887 15.2235C44.3887 15.4552 44.3887 15.7061 44.3694 15.957C44.3502 16.2079 44.2925 16.4395 44.1964 16.6326C44.1002 16.8449 43.9656 16.9993 43.7733 17.1344C43.5811 17.2695 43.3118 17.3274 42.9465 17.3274C42.6004 17.3274 42.3119 17.2695 42.1197 17.1344C41.9274 16.9993 41.7735 16.8449 41.6966 16.6326C41.6005 16.4202 41.5428 16.2079 41.5428 15.957C41.5236 15.7061 41.5236 15.4552 41.5236 15.2235V10.7455H39.3892V15.5131C39.3892 16.787 39.6776 17.7328 40.2737 18.3118C40.8506 18.8909 41.7543 19.1997 42.9657 19.1997C44.1771 19.1997 45.0617 18.9102 45.6578 18.3118C46.2346 17.7328 46.5231 16.787 46.5231 15.5131V10.7455H44.4079V15.2235H44.3887Z" fill="black"/>
<path d="M50.3305 10.7455H48.2153V18.9681H52.888V17.1537H50.3305V10.7455Z" fill="black"/>
<path d="M57.7721 13.9497C57.5991 13.8918 57.426 13.8339 57.2529 13.7953C57.0799 13.7374 56.9261 13.6795 56.7722 13.6216C56.6376 13.5444 56.5222 13.4672 56.4261 13.3707C56.33 13.2742 56.2915 13.1584 56.2915 13.004C56.2915 12.7916 56.3876 12.6179 56.5607 12.4828C56.7338 12.3477 56.9645 12.2898 57.2337 12.2898C57.4452 12.2898 57.676 12.3284 57.9067 12.4249C58.1375 12.5214 58.3682 12.6565 58.599 12.8495L59.445 11.1896C59.0412 10.9773 58.6182 10.8036 58.1759 10.6878C57.7337 10.5719 57.3106 10.514 56.9068 10.514C56.4646 10.514 56.08 10.5719 55.7339 10.7071C55.3877 10.8422 55.0801 11.0159 54.8493 11.2475C54.5994 11.4791 54.4263 11.7686 54.2917 12.0968C54.1571 12.4249 54.0994 12.7916 54.0994 13.197C54.0994 13.6023 54.1571 13.9304 54.2917 14.2007C54.4263 14.4709 54.5801 14.6832 54.7916 14.8569C55.0032 15.0306 55.2339 15.1657 55.5031 15.2816C55.7723 15.3781 56.0415 15.4746 56.3107 15.5711C56.5415 15.6483 56.7338 15.7255 56.9068 15.7834C57.0607 15.8413 57.1953 15.9185 57.3106 15.9957C57.4068 16.0729 57.4837 16.1501 57.5221 16.2466C57.5606 16.3431 57.5798 16.4397 57.5798 16.5748C57.5798 16.7871 57.5029 16.9608 57.3299 17.1152C57.1568 17.2696 56.9068 17.3468 56.5607 17.3468C56.253 17.3468 55.9454 17.2696 55.6377 17.1345C55.3301 16.9994 55.0032 16.7871 54.6955 16.4976L53.7917 18.2154C54.6763 18.8331 55.6377 19.1419 56.6568 19.1419C57.1568 19.1419 57.5991 19.084 58.0029 18.9489C58.4067 18.8138 58.7336 18.6207 59.0028 18.3891C59.272 18.1382 59.4835 17.8487 59.6181 17.5205C59.7527 17.1731 59.8296 16.8064 59.8296 16.3818C59.8296 15.7641 59.6758 15.243 59.3489 14.8569C58.9835 14.4902 58.4644 14.1814 57.7721 13.9497Z" fill="black"/>
<path d="M65.675 11.7879C65.3097 11.7879 64.9444 11.8458 64.5598 11.9037C64.1367 11.9616 63.7137 12.0388 63.2522 12.0388C63.0984 12.0388 62.9638 12.0388 62.8292 12.0195L60.1948 18.9681H62.4638L62.9445 17.5398H65.9827L66.4634 18.9681H68.7324L66.0212 11.8072C65.9058 11.7879 65.7904 11.7879 65.675 11.7879ZM63.5022 15.9185L64.4636 13.1776L65.4251 15.9185H63.5022Z" fill="black"/>
<path d="M78.0392 13.1584C77.8085 12.6372 77.5008 12.174 77.097 11.7879C76.6932 11.4019 76.2125 11.0931 75.6549 10.8615C75.0972 10.6491 74.4819 10.5333 73.8281 10.5333C73.1551 10.5333 72.559 10.6491 72.0014 10.8615C71.4437 11.0738 70.963 11.3826 70.5784 11.7879C70.1939 12.1933 69.867 12.6372 69.6362 13.1584C69.4055 13.6795 69.3093 14.2586 69.3093 14.8569C69.3093 15.4746 69.4247 16.0343 69.6362 16.5555C69.867 17.0766 70.1746 17.5398 70.5784 17.9259C70.9822 18.3119 71.4437 18.6207 72.0014 18.8524C72.559 19.0647 73.1551 19.1805 73.8281 19.1805C74.4819 19.1805 75.0972 19.0647 75.6549 18.8524C76.2125 18.64 76.6932 18.3312 77.097 17.9259C77.5008 17.5205 77.8085 17.0766 78.0392 16.5555C78.27 16.0343 78.3661 15.4553 78.3661 14.8569C78.3661 14.2392 78.2507 13.6795 78.0392 13.1584ZM75.9625 15.7641C75.8471 16.0343 75.6741 16.2852 75.4626 16.4782C75.251 16.6906 75.0011 16.845 74.7319 16.9608C74.4627 17.0766 74.155 17.1345 73.8473 17.1345C73.5397 17.1345 73.2512 17.0766 72.9628 16.9608C72.6936 16.845 72.4436 16.6906 72.2321 16.4782C72.0206 16.2659 71.8475 16.0343 71.7322 15.7641C71.6168 15.4939 71.5399 15.185 71.5399 14.8569C71.5399 14.5288 71.5976 14.2199 71.7322 13.9497C71.8475 13.6795 72.0206 13.4286 72.2321 13.2356C72.4436 13.0232 72.6936 12.8688 72.9628 12.753C73.232 12.6372 73.5397 12.5793 73.8473 12.5793C74.155 12.5793 74.4627 12.6372 74.7319 12.753C75.0011 12.8688 75.251 13.0232 75.4626 13.2356C75.6741 13.4479 75.8471 13.6795 75.9625 13.9497C76.0779 14.2199 76.1548 14.5288 76.1548 14.8569C76.1356 15.185 76.0779 15.4939 75.9625 15.7641Z" fill="black"/>
<path d="M66.5981 11.286C66.5981 10.6683 66.5981 10.3595 66.5981 9.74186C65.079 9.29792 63.8291 10.1858 62.3101 9.74186V11.286C63.8484 11.7299 65.079 10.8614 66.5981 11.286Z" fill="black"/>
<path d="M17.0452 8.71903V6.92397H12.488L17.4683 0.515808H9.58444V2.33017H13.9302L8.93066 8.71903H17.0452Z" fill="black"/>
<path d="M30.6595 3.70059L35.1976 8.71903H37.3127V0.515808H35.1976V5.53425L30.6595 0.515808H28.5251V8.71903H30.6595V3.70059Z" fill="black"/>
<path d="M41.389 0.515808L38.2739 8.71903H40.5429L41.0237 7.2907H44.0618L44.5425 8.71903H46.8115L43.6965 0.515808H41.389ZM41.5813 5.66936L42.5427 2.92852L43.5042 5.66936H41.5813Z" fill="black"/>
<path d="M59.368 8.3909C59.8488 8.15928 60.291 7.86975 60.6564 7.48372C61.0217 7.09768 61.3102 6.67305 61.5217 6.1712C61.7332 5.66936 61.8293 5.14821 61.8293 4.62707C61.8293 4.08662 61.7332 3.56548 61.5217 3.06363C61.3102 2.56179 61.0217 2.13715 60.6564 1.75112C60.291 1.38438 59.868 1.07556 59.368 0.843937C58.8873 0.612317 58.3489 0.515808 57.7913 0.515808H51.4265V8.71903H57.7913C58.3681 8.71903 58.8873 8.60322 59.368 8.3909ZM53.5609 6.92397V2.33017H54.0416C54.407 2.33017 57.9451 2.38807 58.2335 2.50388C58.522 2.61969 58.7719 2.77411 58.9642 2.98642C59.1565 3.19874 59.3104 3.43036 59.4257 3.71989C59.5411 4.00941 59.5796 4.29894 59.5796 4.62707C59.5796 4.9552 59.5219 5.26402 59.4257 5.55355C59.3296 5.82377 59.1757 6.07469 58.9642 6.28701C58.7719 6.49933 58.522 6.65374 58.2335 6.76955C57.9451 6.88536 54.407 6.94327 54.0224 6.94327H53.5609V6.92397Z" fill="black"/>
<path d="M69.79 6.92397H65.3097V5.49564H69.6554V3.70059H65.3097V2.33017H69.79V0.515808H63.1753V8.71903H69.79V6.92397Z" fill="black"/>
<path d="M24.9291 15.6483C24.8137 15.9185 24.6406 16.1694 24.4291 16.3624C24.2176 16.5748 23.9676 16.7292 23.6984 16.845C23.4292 16.9608 23.1216 17.0187 22.8139 17.0187C22.5062 17.0187 22.1986 16.9608 21.9294 16.845C21.6602 16.7292 21.4102 16.5748 21.1987 16.3624C20.9871 16.1501 20.8141 15.9185 20.6987 15.6483C20.5833 15.378 20.5064 15.0692 20.5064 14.7411H18.2759C18.2759 15.3587 18.3913 15.9185 18.6028 16.4396C18.8335 16.9608 19.1412 17.424 19.545 17.8101C19.9488 18.1961 20.4103 18.5049 20.9679 18.7365C21.5256 18.9489 22.1217 19.0647 22.7947 19.0647C23.4484 19.0647 24.0638 18.9489 24.6214 18.7365C25.179 18.5242 25.6598 18.2154 26.0636 17.8101C26.4674 17.424 26.775 16.9608 27.0058 16.4396C27.2365 15.9185 27.3327 15.3394 27.3327 14.7411H25.1021C25.1214 15.0692 25.0444 15.3587 24.9291 15.6483Z" fill="black"/>
<path d="M20.6795 3.87429C20.7949 3.60406 20.9679 3.35314 21.1794 3.16012C21.391 2.9478 21.6409 2.79339 21.9101 2.67758C22.1793 2.56177 22.487 2.50387 22.7947 2.50387C23.1023 2.50387 23.3908 2.56177 23.6792 2.67758C23.9484 2.79339 24.1984 2.9478 24.4099 3.16012C24.6214 3.37244 24.7945 3.60406 24.9098 3.87429C25.0252 4.14451 25.1021 4.45334 25.1021 4.78146H27.3327C27.3327 4.16381 27.2173 3.60406 27.0058 3.08292C26.775 2.56177 26.4674 2.09853 26.0636 1.7125C25.6598 1.32646 25.1983 1.01763 24.6406 0.786015C24.083 0.573696 23.4869 0.457886 22.8139 0.457886C22.1601 0.457886 21.5448 0.573696 20.9871 0.786015C20.4295 0.998333 19.9488 1.30716 19.545 1.7125C19.1412 2.09853 18.8335 2.56177 18.6028 3.08292C18.372 3.60406 18.2759 4.18311 18.2759 4.78146H20.5064C20.5064 4.45334 20.5641 4.14451 20.6795 3.87429Z" fill="black"/>
</svg>
