<svg width="79" height="20" viewBox="0 0 79 20" fill="none" xmlns="http://www.w3.org/2000/svg">
<path d="M6.98882 10.7456H0.354858V18.9681H2.48926V16.2466H6.98882C7.9118 16.2466 8.60404 16.015 9.10399 15.5324C9.58471 15.0499 9.83469 14.3743 9.83469 13.5057C9.83469 12.6372 9.58471 11.9616 9.10399 11.4791C8.60404 10.9965 7.9118 10.7456 6.98882 10.7456ZM6.43118 14.5287H2.48926V12.4828H6.45041C7.23879 12.4828 7.62337 12.8302 7.62337 13.5057C7.60414 14.1813 7.21956 14.5287 6.43118 14.5287Z" fill="white"/>
<path d="M16.507 14.8183C16.8146 14.4322 16.9492 13.9304 16.9492 13.2934C16.9492 12.946 16.8915 12.6179 16.7762 12.309C16.6608 12.0002 16.507 11.73 16.2762 11.4984C16.0647 11.2667 15.7763 11.0737 15.4302 10.9579C15.084 10.8228 14.6995 10.7649 14.238 10.7649H10.9498V18.9681H13.0842V15.8026L15.1033 18.9681H17.7568L15.1802 15.5903C15.7763 15.4552 16.2185 15.2043 16.507 14.8183ZM14.4495 14.162C14.2187 14.3357 13.9111 14.4322 13.488 14.4322H13.0842V12.4055H13.488C13.9111 12.4055 14.238 12.502 14.4495 12.6758C14.6802 12.8495 14.7764 13.1004 14.7764 13.4285C14.7956 13.7374 14.6802 13.9883 14.4495 14.162Z" fill="white"/>
<path d="M19.5452 12.7143C19.949 13.1004 20.4105 13.4092 20.9682 13.6408C21.5258 13.8531 22.1219 13.9689 22.7949 13.9689C23.4487 13.9689 24.064 13.8531 24.6216 13.6408C25.1793 13.4285 25.66 13.1197 26.0638 12.7143C26.4676 12.3283 26.7753 11.8651 27.006 11.3439C27.2368 10.8228 27.3329 10.2437 27.3329 9.64536C27.3329 9.0277 27.2175 8.46795 27.006 7.94681C26.7753 7.42566 26.4676 6.96242 26.0638 6.57639C25.66 6.19035 25.1793 5.88153 24.6216 5.64991C24.064 5.43759 23.4487 5.32178 22.7949 5.32178C22.1219 5.32178 21.5258 5.43759 20.9682 5.64991C20.4105 5.86222 19.949 6.17105 19.5452 6.57639C19.1414 6.98172 18.8338 7.42566 18.603 7.94681C18.3723 8.46795 18.2761 9.047 18.2761 9.64536C18.2761 10.263 18.3915 10.8228 18.603 11.3439C18.8145 11.8651 19.1607 12.309 19.5452 12.7143ZM20.6797 8.71888C20.7951 8.44865 20.9682 8.19773 21.1797 8.00471C21.3912 7.79239 21.6412 7.63798 21.9104 7.52217C22.1796 7.40636 22.4872 7.34845 22.7949 7.34845C23.1026 7.34845 23.391 7.40636 23.6794 7.52217C23.9486 7.63798 24.1986 7.79239 24.4101 8.00471C24.6216 8.21703 24.7947 8.44865 24.9101 8.71888C25.0255 8.9891 25.1024 9.29793 25.1024 9.62605C25.1024 9.95418 25.0447 10.263 24.9101 10.5332C24.7947 10.8035 24.6216 11.0544 24.4101 11.2474C24.1986 11.4597 23.9486 11.6141 23.6794 11.7299C23.4102 11.8457 23.1026 11.9037 22.7949 11.9037C22.4872 11.9037 22.1988 11.8457 21.9104 11.7299C21.6412 11.6141 21.3912 11.4597 21.1797 11.2474C20.9682 11.0351 20.7951 10.8035 20.6797 10.5332C20.5644 10.263 20.4874 9.95418 20.4874 9.62605C20.5067 9.29793 20.5644 9.0084 20.6797 8.71888Z" fill="white"/>
<path d="M35.409 10.7456H28.5443V18.9681H30.6787V16.2466H35.4282C36.3512 16.2466 37.0435 16.015 37.5434 15.5324C38.0241 15.0499 38.2741 14.3743 38.2741 13.5057C38.2741 12.6372 38.0241 11.9616 37.5434 11.4791C37.0242 10.9965 36.3128 10.7456 35.409 10.7456ZM34.8514 14.5287H30.6595V12.4828H34.8514C35.6398 12.4828 36.0243 12.8302 36.0243 13.5057C36.0243 14.1813 35.6398 14.5287 34.8514 14.5287Z" fill="white"/>
<path d="M44.3889 15.2236C44.3889 15.4552 44.3889 15.7061 44.3697 15.9571C44.3505 16.208 44.2928 16.4396 44.1966 16.6326C44.1005 16.8449 43.9659 16.9994 43.7736 17.1345C43.5813 17.2696 43.3121 17.3275 42.9467 17.3275C42.6006 17.3275 42.3122 17.2696 42.1199 17.1345C41.9276 16.9994 41.7738 16.8449 41.6969 16.6326C41.6007 16.4203 41.543 16.208 41.543 15.9571C41.5238 15.7061 41.5238 15.4552 41.5238 15.2236V10.7456H39.3894V15.5131C39.3894 16.787 39.6778 17.7328 40.2739 18.3119C40.8508 18.8909 41.7546 19.1997 42.966 19.1997C44.1774 19.1997 45.0619 18.9102 45.658 18.3119C46.2349 17.7328 46.5233 16.787 46.5233 15.5131V10.7456H44.4081V15.2236H44.3889Z" fill="white"/>
<path d="M50.3305 10.7456H48.2153V18.9681H52.888V17.1538H50.3305V10.7456Z" fill="white"/>
<path d="M57.7722 13.9496C57.5992 13.8917 57.4261 13.8338 57.2531 13.7952C57.08 13.7373 56.9262 13.6794 56.7723 13.6215C56.6377 13.5443 56.5224 13.4671 56.4262 13.3706C56.3301 13.2741 56.2916 13.1582 56.2916 13.0038C56.2916 12.7915 56.3878 12.6178 56.5608 12.4827C56.7339 12.3476 56.9646 12.2897 57.2338 12.2897C57.4454 12.2897 57.6761 12.3283 57.9068 12.4248C58.1376 12.5213 58.3683 12.6564 58.5991 12.8494L59.4452 11.1895C59.0414 10.9772 58.6183 10.8034 58.1761 10.6876C57.7338 10.5718 57.3107 10.5139 56.9069 10.5139C56.4647 10.5139 56.0801 10.5718 55.734 10.7069C55.3879 10.842 55.0802 11.0158 54.8495 11.2474C54.5995 11.479 54.4264 11.7685 54.2918 12.0967C54.1572 12.4248 54.0995 12.7915 54.0995 13.1968C54.0995 13.6022 54.1572 13.9303 54.2918 14.2005C54.4264 14.4708 54.5803 14.6831 54.7918 14.8568C55.0033 15.0305 55.234 15.1656 55.5032 15.2814C55.7724 15.3779 56.0416 15.4744 56.3108 15.571C56.5416 15.6482 56.7339 15.7254 56.9069 15.7833C57.0608 15.8412 57.1954 15.9184 57.3108 15.9956C57.4069 16.0728 57.4838 16.15 57.5223 16.2465C57.5607 16.343 57.58 16.4395 57.58 16.5746C57.58 16.787 57.503 16.9607 57.33 17.1151C57.1569 17.2695 56.9069 17.3467 56.5608 17.3467C56.2532 17.3467 55.9455 17.2695 55.6378 17.1344C55.3302 16.9993 55.0033 16.787 54.6956 16.4974L53.7919 18.2153C54.6764 18.8329 55.6378 19.1418 56.657 19.1418C57.1569 19.1418 57.5992 19.0839 58.003 18.9488C58.4068 18.8136 58.7337 18.6206 59.0029 18.389C59.2721 18.1381 59.4836 17.8486 59.6182 17.5204C59.7528 17.173 59.8297 16.8063 59.8297 16.3816C59.8297 15.764 59.6759 15.2428 59.349 14.8568C58.9837 14.4901 58.4645 14.1812 57.7722 13.9496Z" fill="white"/>
<path d="M65.6752 11.7878C65.3098 11.7878 64.9445 11.8457 64.5599 11.9037C64.1369 11.9616 63.7138 12.0388 63.2523 12.0388C63.0985 12.0388 62.9639 12.0388 62.8293 12.0195L60.1949 18.9681H62.4639L62.9447 17.5397H65.9828L66.4636 18.9681H68.7326L66.0213 11.8071C65.9059 11.7878 65.7905 11.7878 65.6752 11.7878ZM63.5023 15.9184L64.4638 13.1776L65.4252 15.9184H63.5023Z" fill="white"/>
<path d="M78.0394 13.1582C77.8086 12.6371 77.5009 12.1738 77.0971 11.7878C76.6933 11.4018 76.2126 11.093 75.655 10.8613C75.0973 10.649 74.482 10.5332 73.8282 10.5332C73.1552 10.5332 72.5591 10.649 72.0015 10.8613C71.4439 11.0737 70.9631 11.3825 70.5786 11.7878C70.194 12.1931 69.8671 12.6371 69.6363 13.1582C69.4056 13.6794 69.3094 14.2584 69.3094 14.8568C69.3094 15.4744 69.4248 16.0342 69.6363 16.5553C69.8671 17.0765 70.1747 17.5397 70.5786 17.9258C70.9824 18.3118 71.4439 18.6206 72.0015 18.8522C72.5591 19.0646 73.1552 19.1804 73.8282 19.1804C74.482 19.1804 75.0973 19.0646 75.655 18.8522C76.2126 18.6399 76.6933 18.3311 77.0971 17.9258C77.5009 17.5204 77.8086 17.0765 78.0394 16.5553C78.2701 16.0342 78.3662 15.4551 78.3662 14.8568C78.3662 14.2391 78.2509 13.6794 78.0394 13.1582ZM75.9626 15.764C75.8473 16.0342 75.6742 16.2851 75.4627 16.4781C75.2512 16.6904 75.0012 16.8449 74.732 16.9607C74.4628 17.0765 74.1551 17.1344 73.8475 17.1344C73.5398 17.1344 73.2514 17.0765 72.9629 16.9607C72.6937 16.8449 72.4438 16.6904 72.2322 16.4781C72.0207 16.2658 71.8477 16.0342 71.7323 15.764C71.6169 15.4937 71.54 15.1849 71.54 14.8568C71.54 14.5287 71.5977 14.2198 71.7323 13.9496C71.8477 13.6794 72.0207 13.4285 72.2322 13.2354C72.4438 13.0231 72.6937 12.8687 72.9629 12.7529C73.2321 12.6371 73.5398 12.5792 73.8475 12.5792C74.1551 12.5792 74.4628 12.6371 74.732 12.7529C75.0012 12.8687 75.2512 13.0231 75.4627 13.2354C75.6742 13.4478 75.8473 13.6794 75.9626 13.9496C76.078 14.2198 76.1549 14.5287 76.1549 14.8568C76.1357 15.1849 76.078 15.4937 75.9626 15.764Z" fill="white"/>
<path d="M66.5982 11.2858C66.5982 10.6682 66.5982 10.3593 66.5982 9.74168C65.0791 9.29774 63.8293 10.1856 62.3102 9.74168V11.2858C63.8485 11.7298 65.0791 10.8612 66.5982 11.2858Z" fill="white"/>
<path d="M17.0455 8.71909V6.92403H12.4882L17.4685 0.515869H9.58469V2.33023H13.9304L8.93091 8.71909H17.0455Z" fill="white"/>
<path d="M30.6595 3.70065L35.1976 8.71909H37.3127V0.515869H35.1976V5.53431L30.6595 0.515869H28.5251V8.71909H30.6595V3.70065Z" fill="white"/>
<path d="M41.3892 0.515869L38.2742 8.71909H40.5432L41.0239 7.29076H44.0621L44.5428 8.71909H46.8118L43.6967 0.515869H41.3892ZM41.5815 5.66942L42.543 2.92858L43.5044 5.66942H41.5815Z" fill="white"/>
<path d="M59.3683 8.39096C59.849 8.15934 60.2913 7.86981 60.6566 7.48378C61.022 7.09774 61.3104 6.67311 61.5219 6.17126C61.7334 5.66942 61.8296 5.14827 61.8296 4.62713C61.8296 4.08668 61.7334 3.56554 61.5219 3.06369C61.3104 2.56185 61.022 2.13721 60.6566 1.75118C60.2913 1.38445 59.8682 1.07562 59.3683 0.843998C58.8876 0.612378 58.3492 0.515869 57.7915 0.515869H51.4268V8.71909H57.7915C58.3684 8.71909 58.8876 8.60328 59.3683 8.39096ZM53.5612 6.92403V2.33023H54.0419C54.4072 2.33023 57.9453 2.38813 58.2338 2.50394C58.5222 2.61975 58.7722 2.77417 58.9645 2.98649C59.1568 3.1988 59.3106 3.43042 59.426 3.71995C59.5413 4.00947 59.5798 4.299 59.5798 4.62713C59.5798 4.95526 59.5221 5.26408 59.426 5.55361C59.3298 5.82383 59.176 6.07476 58.9645 6.28707C58.7722 6.49939 58.5222 6.65381 58.2338 6.76962C57.9453 6.88543 54.4072 6.94333 54.0227 6.94333H53.5612V6.92403Z" fill="white"/>
<path d="M69.7903 6.92403H65.3099V5.49571H69.6557V3.70065H65.3099V2.33023H69.7903V0.515869H63.1755V8.71909H69.7903V6.92403Z" fill="white"/>
<path d="M24.9293 15.6481C24.8139 15.9184 24.6409 16.1693 24.4294 16.3623C24.2178 16.5746 23.9679 16.729 23.6987 16.8449C23.4295 16.9607 23.1218 17.0186 22.8141 17.0186C22.5065 17.0186 22.1988 16.9607 21.9296 16.8449C21.6604 16.729 21.4104 16.5746 21.1989 16.3623C20.9874 16.15 20.8143 15.9184 20.699 15.6481C20.5836 15.3779 20.5067 15.0691 20.5067 14.741H18.2761C18.2761 15.3586 18.3915 15.9184 18.603 16.4395C18.8338 16.9607 19.1414 17.4239 19.5452 17.8099C19.949 18.196 20.4105 18.5048 20.9682 18.7364C21.5258 18.9487 22.1219 19.0645 22.7949 19.0645C23.4487 19.0645 24.064 18.9487 24.6216 18.7364C25.1793 18.5241 25.66 18.2153 26.0638 17.8099C26.4676 17.4239 26.7753 16.9607 27.006 16.4395C27.2368 15.9184 27.3329 15.3393 27.3329 14.741H25.1024C25.1216 15.0691 25.0447 15.3586 24.9293 15.6481Z" fill="white"/>
<path d="M20.6797 3.87416C20.7951 3.60394 20.9682 3.35302 21.1797 3.16C21.3912 2.94768 21.6412 2.79327 21.9104 2.67746C22.1796 2.56165 22.4872 2.50374 22.7949 2.50374C23.1026 2.50374 23.391 2.56165 23.6794 2.67746C23.9486 2.79327 24.1986 2.94768 24.4101 3.16C24.6216 3.37232 24.7947 3.60394 24.9101 3.87416C25.0255 4.14439 25.1024 4.45321 25.1024 4.78134H27.3329C27.3329 4.16369 27.2175 3.60394 27.006 3.08279C26.7753 2.56165 26.4676 2.09841 26.0638 1.71237C25.66 1.32634 25.1985 1.01751 24.6409 0.785892C24.0832 0.573574 23.4871 0.457764 22.8141 0.457764C22.1604 0.457764 21.545 0.573574 20.9874 0.785892C20.4298 0.998211 19.949 1.30704 19.5452 1.71237C19.1414 2.09841 18.8338 2.56165 18.603 3.08279C18.3723 3.60394 18.2761 4.18299 18.2761 4.78134H20.5067C20.5067 4.45321 20.5644 4.14439 20.6797 3.87416Z" fill="white"/>
</svg>
